<?xml version="1.0" encoding="UTF-8"?>
<svg id="Layer_1" data-name="Layer 1" xmlns="http://www.w3.org/2000/svg" viewBox="0 0 508 630.09">
  <defs>
    <style>
      .cls-1, .cls-2, .cls-3, .cls-4 {
        stroke: #fff;
        stroke-miterlimit: 10;
      }

      .cls-5, .cls-4, .cls-6 {
        fill: #fff;
      }

      .cls-2 {
        stroke-width: 5px;
      }

      .cls-3 {
        fill: red;
      }

      .cls-6 {
        font-family: ProximaNova-Bold, 'Proxima Nova';
        font-size: 48px;
        font-weight: 700;
      }
    </style>
  </defs>
  <g id="Outer_Circle" data-name="Outer Circle">
    <circle class="cls-2" cx="254" cy="281.14" r="251.5"/>
  </g>
  <g id="Inner_Circle" data-name="Inner Circle">
    <circle class="cls-5" cx="254" cy="281.14" r="191"/>
  </g>
  <text class="cls-6" transform="translate(112.32 133.43) rotate(-39.17)"><tspan x="0" y="0">A</tspan></text>
  <text class="cls-6" transform="translate(139.46 111.44) rotate(-29.14)"><tspan x="0" y="0">N</tspan></text>
  <text class="cls-6" transform="translate(172.17 93.74) rotate(-19.73)"><tspan x="0" y="0">T</tspan></text>
  <text class="cls-6" transform="translate(201.45 83.87) rotate(-13.11)"><tspan x="0" y="0">I</tspan></text>
  <text class="cls-6" transform="translate(217.12 79.98) rotate(-6.54)"><tspan x="0" y="0">F</tspan></text>
  <text class="cls-6" transform="translate(244.73 76.64) rotate(2.07)"><tspan x="0" y="0">A</tspan></text>
  <text class="cls-6" transform="translate(279.48 78.22) rotate(11.22)"><tspan x="0" y="0">S</tspan></text>
  <text class="cls-6" transform="translate(309.98 84.28) rotate(20.42)"><tspan x="0" y="0">C</tspan></text>
  <text class="cls-6" transform="translate(343.16 97.49) rotate(27.71)"><tspan x="0" y="0">I</tspan></text>
  <text class="cls-6" transform="translate(357.57 104.73) rotate(34.48)"><tspan x="0" y="0">S</tspan></text>
  <text class="cls-6" transform="translate(382.95 122.39) rotate(43.06)"><tspan x="0" y="0">T</tspan></text>
  <text class="cls-6" transform="translate(40.08 382.24) rotate(60.77)"><tspan x="0" y="0">A</tspan></text>
  <text class="cls-6" transform="translate(60.4 417.1) rotate(51.18)"><tspan x="0" y="0">R</tspan></text>
  <text class="cls-6" transform="translate(84.9 446.67) rotate(41.55)"><tspan x="0" y="0">C</tspan></text>
  <text class="cls-6" transform="translate(115.77 473.53) rotate(30.66)"><tspan x="0" y="0">H</tspan></text>
  <text class="cls-6" transform="translate(152.05 494.11) rotate(24.05)"><tspan x="0" y="0">I</tspan></text>
  <text class="cls-6" transform="translate(170.27 502.45) rotate(16.78)"><tspan x="0" y="0">V</tspan></text>
  <text class="cls-6" transform="translate(209.01 513.3) rotate(7.54)"><tspan x="0" y="0">E</tspan></text>
  <text class="cls-6" transform="translate(244.02 517.41) rotate(-1.12)"><tspan x="0" y="0">S</tspan></text>
  <text class="cls-6" transform="translate(279.42 515.86) rotate(-7.7)"><tspan x="0" y="0"> </tspan></text>
  <text class="cls-6" transform="translate(298.4 513.51) rotate(-14.79)"><tspan x="0" y="0">A</tspan></text>
  <text class="cls-6" transform="translate(335.65 503.19) rotate(-24.14)"><tspan x="0" y="0">C</tspan></text>
  <text class="cls-6" transform="translate(372.15 485.97) rotate(-33.33)"><tspan x="0" y="0">T</tspan></text>
  <text class="cls-6" transform="translate(400.6 466.29) rotate(-39.98)"><tspan x="0" y="0">I</tspan></text>
  <text class="cls-6" transform="translate(416.3 453.54) rotate(-47.78)"><tspan x="0" y="0">O</tspan></text>
  <text class="cls-6" transform="translate(445.26 420.11) rotate(-57.48)"><tspan x="0" y="0">N</tspan></text>
  <g id="Box_Black" data-name="Box Black">
    <path class="cls-1" d="m311,257.24c-9.4-4.7-18.7-9.6-28.1-14.4-19.8-10-39.5-20.3-59.4-30.3-20.5-10.4-40.9-20.9-61.5-31.3-.3-.2-.6-.3-.9-.6q-.1-.1,0-.2c1.3-.4,2.6-.8,4-1.3,34.8-13.3,57.6-21.9,83.7-32,1-.4,1.6-.1,2.5.3,48.1,20.7,96.1,41.5,144.2,62.2,1.6.7,3.3,1.4,5,2,.1,0,.1.1,0,.1-2.5,1.2-5,2.5-7.4,3.8-26.7,13.9-53.4,27.7-80.2,41.5-.8.6-1.1.6-1.9.2Z"/>
    <path class="cls-1" d="m311.2,285.94c0,.2-.1.3-.3.3-1-.2-1.8-.9-2.8-1.3-.3-.1-.7-.3-1.1-.6-27.8-14.2-66.3-33.8-115.3-58.8-9.2-4.7-18.4-9.4-27.6-14.1-.3-.1-.7-.4-1.4-.6-.9-.4-1.7-1.1-2.7-1.5-.1,0-.2-.1-.2-.2v-26.8c0-.3.1-.4.4-.3,1.4.6,3,1.6,4,2.1,36.4,18.7,74.3,37.7,111.3,56.8,11.8,6.1,23.6,12,35.5,18v.1l.2,26.9Z"/>
    <path class="cls-1" d="m305.9,285.54h0c-.1,38.5-.3,76.9-.4,115.3,0,.5.2,1.3,0,1.9h0c0,.1-.1.1-.2.1-1.1-.7-2.4-1.6-3.4-2.2-45.6-29.9-91.2-59.7-136.7-89.6-.5-.3-.9-.7-1.3-1q-.1-.1-.1-.2c-.3-14.9-.7-29.8-1-44.7-.4-17.3-.7-34.6-1.1-51.9,0-.3.1-.6.1-.9v-.1c.1-.1.2-.2.3-.1,19.6,10.3,39.4,20.1,59,30.2,13.4,6.9,27,13.6,40.4,20.5,14.2,7.3,28.5,14.5,42.7,21.7.6.3,1.3.3,1.7,1h0Z"/>
    <path class="cls-1" d="m312.7,286.34q-.1,0-.1-.1c0-.4.1-.9.1-1.3v-25c0-.6.2-1,.6-1.2,29.4-15.1,58.7-30.3,88-45.5h0q.1,0,.1.1v26.5c0,1.6-2.1,1.9-3.1,2.6-.4.3-.6.4-.7.4-27.4,14.2-54.9,28.3-82.4,42.4-1.2.5-2.1.9-2.5,1.1Z"/>
    <path class="cls-1" d="m307,403.14h0c-.1,0-.2,0-.2-.1,0-1.5.1-3.2.1-4.6.2-40.5.3-80.7.4-110.8,0-.4.1-.8.1-1.1v-.1c.1-.1.2-.2.3-.1,1,.6,3.2,2.1,4.3,2.1.1,0,.2,0,.2-.1,44.7-23,72.8-37.4,84.2-43.3.6-.3,1.1-.5,1.5-.7q.1,0,.1.1c-.1,22.1-.2,44.2-.2,66.3,0,7,0,14.1-.1,21.2-.1,6.9,0,13.1-.1,20.8,0,1.1.6,3.8-.8,4.4-28.9,14.8-57.7,29.6-86.6,44.3-1,.5-2.1,1.1-3.2,1.7Zm65.8-112.6c2.4-2.5,3.9-6.6,2.7-10.1-.9-2.6-3.7-3.8-6.3-3.4-.7.1-1.7.5-3.2,1.2-6.9,3.3-13.8,6.5-20.6,9.9-3.9,1.9-6.3,3.1-8.1,6.6-3.2,6.1.6,13.5,8.2,9.8,7.5-3.6,15-7.2,22.5-10.8,1.8-1,3.5-1.9,4.8-3.2Z"/>
    <path class="cls-1" d="m339.9,303.74c-2.5-1-2.9-4.5-2.1-6.8.4-1.1.7-1.9.9-2.2,2.3-3.8,7.2-5.4,11.1-7.3,9-4.4,14.9-7.2,17.6-8.5,2.9-1.3,6.5-1,7.2,2.6.9,4.3-1.9,8.3-5.8,10.2-7.8,3.8-15.7,7.6-23.6,11.4-1.7.8-3.6,1.4-5.3.6Z"/>
  </g>
  <g id="Box_Rot" data-name="Box Rot">
    <path class="cls-3" d="m253.6,296.74c-9.4-4.7-18.7-9.6-28.1-14.4-19.8-10-39.5-20.3-59.4-30.3-20.5-10.4-40.9-20.9-61.5-31.3-.3-.2-.6-.3-.9-.6q-.1-.1,0-.2c1.3-.4,2.6-.8,4-1.3,34.8-13.3,57.6-21.9,83.7-32,1-.4,1.6-.1,2.5.3,48.1,20.7,96.1,41.5,144.2,62.2,1.6.7,3.3,1.4,5,2,.1,0,.1.1,0,.1-2.5,1.2-5,2.5-7.4,3.8-26.7,13.9-53.4,27.7-80.2,41.5-.8.6-1.2.5-1.9.2Z"/>
    <path class="cls-3" d="m253.8,325.34c0,.2-.1.3-.3.3-1-.2-1.8-.9-2.8-1.3-.3-.1-.7-.3-1.1-.6-27.8-14.2-66.3-33.8-115.3-58.8-9.2-4.7-18.4-9.4-27.6-14.1-.3-.1-.7-.4-1.4-.6-.9-.4-1.7-1.1-2.7-1.5-.1,0-.2-.1-.2-.2v-26.8c0-.3.1-.4.4-.3,1.4.6,3,1.6,4,2.1,36.4,18.7,74.3,37.7,111.3,56.8,11.8,6.1,23.6,12,35.5,18v.1l.2,26.9Z"/>
    <path class="cls-3" d="m248.5,325.04h0c-.1,38.5-.3,76.9-.4,115.3,0,.5.2,1.3,0,1.9h0c0,.1-.1.1-.2.1-1.1-.7-2.4-1.6-3.4-2.2-45.6-29.9-91.2-59.7-136.7-89.6-.5-.3-.9-.7-1.3-1q-.1-.1-.1-.2c-.3-14.9-.7-29.8-1-44.7-.4-17.3-.7-34.6-1.1-51.9,0-.3.1-.6.1-.9v-.1c.1-.1.2-.2.3-.1,19.6,10.3,39.4,20.1,59,30.2,13.4,6.9,27,13.6,40.4,20.5,14.2,7.3,28.5,14.5,42.7,21.7.6.2,1.2.3,1.7,1h0Z"/>
    <path class="cls-3" d="m255.3,325.84q-.1,0-.1-.1c0-.4.1-.9.1-1.3v-25c0-.6.2-1,.6-1.2,29.4-15.1,58.7-30.3,88-45.5h0q.1,0,.1.1v26.5c0,1.6-2.1,1.9-3.1,2.6-.4.3-.6.4-.7.4-27.4,14.2-54.9,28.3-82.4,42.4-1.2.4-2.1.9-2.5,1.1Z"/>
    <path class="cls-3" d="m249.6,442.54q0,.1,0,0c-.1,0-.2,0-.2-.1,0-1.5.1-3.2.1-4.6.2-40.5.3-80.7.4-110.8,0-.4.1-.8.1-1.1v-.1c.1-.1.2-.2.3-.1,1,.6,3.2,2.1,4.3,2.1.1,0,.2,0,.2-.1,44.7-23,72.8-37.4,84.2-43.3.6-.3,1.1-.5,1.5-.7q.1,0,.1.1c-.1,22.1-.2,44.2-.2,66.3,0,7,0,14.1-.1,21.2-.1,6.9,0,13.1-.1,20.8,0,1.1.6,3.8-.8,4.4-28.9,14.8-57.7,29.6-86.6,44.3-1,.6-2.1,1.1-3.2,1.7Zm65.8-112.6c2.4-2.5,3.9-6.6,2.7-10.1-.9-2.6-3.7-3.8-6.3-3.4-.7.1-1.7.5-3.2,1.2-6.9,3.3-13.8,6.5-20.6,9.9-3.9,1.9-6.3,3.1-8.1,6.6-3.2,6.1.6,13.5,8.2,9.8,7.5-3.6,15-7.2,22.5-10.8,1.8-.9,3.5-1.8,4.8-3.2Z"/>
    <path class="cls-3" d="m282.5,343.24c-2.5-1-2.9-4.5-2.1-6.8.4-1.1.7-1.9.9-2.2,2.3-3.8,7.2-5.4,11.1-7.3,9-4.4,14.9-7.2,17.6-8.5,2.9-1.3,6.5-1,7.2,2.6.9,4.3-1.9,8.3-5.8,10.2-7.8,3.8-15.7,7.6-23.6,11.4-1.7.8-3.6,1.3-5.3.6Z"/>
    <path class="cls-4" d="m279.9,334.04c1.8-3.5,4.3-4.7,8.1-6.6,6.9-3.3,13.7-6.6,20.6-9.9,1.4-.7,2.5-1.1,3.2-1.2,2.6-.4,5.4.7,6.3,3.4,1.2,3.5-.2,7.6-2.7,10.1-1.3,1.4-3,2.2-4.8,3.1-7.5,3.7-15,7.2-22.5,10.8-7.6,3.9-11.4-3.6-8.2-9.7Zm37.2-13c-.7-3.6-4.3-4-7.2-2.6-2.7,1.3-8.6,4.1-17.6,8.5-3.9,1.9-8.8,3.5-11.1,7.3-.2.3-.5,1-.9,2.2-.8,2.3-.4,5.8,2.1,6.8,1.7.7,3.6.2,5.2-.6,7.9-3.7,15.8-7.5,23.6-11.4,4-1.8,6.8-5.8,5.9-10.2Z"/>
    <path class="cls-4" d="m248.9,444.44h-.2c-.6-.3-1.1-.5-1.4-.8-31.7-20.7-78.3-51.3-139.8-91.6-1.1-.7-1.8-1.2-2.3-1.6-.1,0-.1-.1-.1-.2v-.8c-.2-12.5-.4-25.1-.8-37.6-.6-21.5-1-42.7-1.4-60.6,0-.3-.1-.6-.2-.9,0-.1-.1-.1-.2-.2l-1.3-.7q-.1-.1-.1-.2v-29.5q0-.1.1-.2c.2-.1.3-.2.5-.3,2.5-1,4.9-1.9,7.4-2.8,27-10.3,54-20.6,81-30.9.8-.3,1.5-.5,2.3-.7h.2c.7.2,1.1.4,1.3.5,50.1,21.6,100.2,43.2,150.3,64.9.8.4,1.3.4,1.3,1.5v28.5c0,.4-.1.7-.5.9-.7.3-1.3.7-2,1-.8.4-.9.8-.9,1.7.1,12.2,0,30-.1,53.4-.1,19.4-.2,38.8-.3,58.2,0,.4,0,.9-.1,1.4,0,.1-.1.1-.1.2-28.8,14.7-57.6,29.5-86.5,44.2-2,1.2-4.1,2.2-6.1,3.2Zm94.2-193c.1,0,.1-.1,0-.1-1.7-.6-3.4-1.3-5-2-48.1-20.7-96.1-41.5-144.2-62.2-.9-.4-1.5-.7-2.5-.3-26.1,10.1-48.9,18.7-83.7,32-1.3.5-2.6.9-4,1.3-.1,0-.1.1,0,.2.3.2.6.4.9.6,20.5,10.3,41,20.9,61.5,31.3,19.8,10,39.6,20.2,59.4,30.3,9.4,4.8,18.7,9.6,28.1,14.4.8.4,1.1.4,1.9,0,26.7-13.8,53.5-27.6,80.2-41.5,2.4-1.5,4.9-2.7,7.4-4Zm-89.3,47c-11.8-6-23.7-11.9-35.5-18-37-19.1-74.9-38.1-111.3-56.8-1.1-.5-2.7-1.5-4-2.1-.3-.1-.4,0-.4.3v26.8c0,.1.1.2.2.2,1,.4,1.7,1.1,2.7,1.5.6.3,1.1.5,1.4.6,9.2,4.6,18.4,9.4,27.6,14.1,49,24.9,87.5,44.5,115.3,58.8.4.2.8.4,1.1.6.9.4,1.7,1.1,2.8,1.3.2,0,.3,0,.3-.3l-.2-27c0,.1,0,0,0,0Zm-7,25.5c-14.3-7.2-28.5-14.4-42.7-21.7-13.4-6.9-27-13.6-40.4-20.5-19.6-10.1-39.5-19.9-59-30.2h-.1c-.1,0-.2.1-.3.2,0,.3-.1.6-.1.9.4,17.3.7,34.6,1.1,51.9.3,14.9.7,29.8,1,44.7,0,.1,0,.2.1.2.3.3.7.6,1.3,1,45.6,29.9,91.2,59.7,136.7,89.6.9.6,2.2,1.5,3.4,2.2h0c.1,0,.2,0,.2-.1.2-.7,0-1.5,0-1.9.1-38.4.3-76.8.4-115.2h0c-.4-.7-1-.8-1.6-1.1Zm94.1-42.2c1-.7,3.1-1,3.1-2.6v-26.5h0s-.1-.1-.1,0c-29.3,15.3-58.6,30.4-88,45.5-.4.2-.6.6-.6,1.2v25c0,.4-.1.9-.1,1.3q0,.1.1.1c.4-.2,1.3-.6,2.5-1.2,27.5-14,55-28.2,82.4-42.4,0,0,.2-.1.7-.4Zm-.6,110.4c.1-7.7,0-13.9.1-20.8.1-7,.1-14.1.1-21.2.1-22.1.1-44.2.2-66.3q0-.1-.1-.1c-.4.2-.9.4-1.5.7-11.4,5.9-39.5,20.3-84.2,43.3-.1,0-.1.1-.2.1-1.1,0-3.3-1.5-4.3-2.1h-.1c-.1,0-.3.1-.3.2,0,.4-.1.8-.1,1.1-.1,30.2-.2,70.3-.4,110.8,0,1.4-.1,3.1-.1,4.6v.1s.1.1.1,0c1.1-.6,2.2-1.2,3.3-1.8,28.9-14.7,57.8-29.5,86.6-44.3,1.5-.6.9-3.3.9-4.3Z"/>
  </g>
</svg>