<?xml version="1.0" encoding="UTF-8"?>
<svg id="English" xmlns="http://www.w3.org/2000/svg" viewBox="0 0 512 512">
  <defs>
    <style>
      .cls-1 {
        fill: #fff;
      }

      .cls-2 {
        fill: #231f20;
      }

      .cls-3 {
        stroke-width: 5px;
      }

      .cls-3, .cls-4 {
        stroke: #fff;
        stroke-miterlimit: 10;
      }

      .cls-4 {
        fill: red;
      }
    </style>
  </defs>
  <g id="Outer_Circle" data-name="Outer Circle">
    <circle class="cls-3" cx="256" cy="256" r="251.5"/>
  </g>
  <g id="Inner_Circle" data-name="Inner Circle">
    <circle class="cls-1" cx="256" cy="256" r="191"/>
  </g>
  <g>
    <path class="cls-1" d="m129.06,89.11l-11.09,9.03,1.92,5.55-5.81,4.73-10.61-32.64,6.62-5.4,29.78,17.04-5.77,4.7-5.05-3.01Zm-13.4,3.3l8.23-6.7-13.37-8.05,5.14,14.75Z"/>
    <path class="cls-1" d="m139.67,62.63l10.47,18.78-5.95,3.32-15.59-27.97,6.12-3.41,23.05,10.89-10.1-18.11,5.95-3.32,15.59,27.97-5.74,3.2-23.8-11.35Z"/>
    <path class="cls-1" d="m175.28,40.53l-8.81,3.16-2.03-5.65,24.04-8.62,2.03,5.65-8.77,3.14,8.78,24.49-6.46,2.32-8.78-24.49Z"/>
    <path class="cls-1" d="m199.22,26.81l6.64-1.55,7.27,31.18-6.64,1.55-7.27-31.18Z"/>
    <path class="cls-1" d="m218.57,22.65l22.5-2.58.67,5.82-15.74,1.8.79,6.91,15.4-1.77.67,5.82-15.4,1.76,1.52,13.26-6.77.78-3.64-31.8Z"/>
    <path class="cls-1" d="m270.43,46.81l-14.29-.52-2.21,5.44-7.48-.27,13.53-31.54,8.54.31,11.17,32.44-7.43-.27-1.81-5.59Zm-12.26-6.35l10.6.38-4.75-14.87-5.85,14.48Z"/>
    <path class="cls-1" d="m287.93,44.47c1.75,2.75,4.81,5.36,9.14,6.21,3.67.73,5.81-.66,6.16-2.45.47-2.35-2.11-3.7-5.56-5.26-4.9-2.2-11.21-4.91-9.82-11.93,1.04-5.23,6.4-8.57,13.79-7.1,4.99.99,8.83,3.32,11.37,6.81l-4.69,4.16c-2.08-2.86-5.25-4.61-8.31-5.22-3.01-.6-4.88.4-5.25,2.29-.42,2.12,2.09,3.3,5.54,4.87,4.95,2.2,11.23,5.06,9.85,12.03-1.14,5.74-6.09,9.26-14.57,7.58-6.03-1.19-9.96-4.08-12.33-7.63l4.68-4.36Z"/>
    <path class="cls-1" d="m319.04,44.71c3.43-9.22,12.75-12.92,21.52-9.66,6.84,2.55,9.32,7.57,10.05,12.09l-6.49.66c-.35-2.9-2.33-5.84-5.66-7.08-5.22-1.94-10.74.77-12.85,6.44-2.11,5.67.29,11.33,5.51,13.27,3.33,1.24,6.73.35,8.91-1.65l4.5,4.7c-3.55,2.93-8.68,5.17-15.52,2.62-8.77-3.27-13.4-12.16-9.97-21.38Z"/>
    <path class="cls-1" d="m362.83,45.46l6.04,3.17-14.89,28.35-6.03-3.17,14.89-28.35Z"/>
    <path class="cls-1" d="m368.89,74.24c.53,3.22,2.3,6.82,5.94,9.32,3.09,2.12,5.6,1.69,6.63.18,1.36-1.98-.47-4.23-3.03-7.03-3.63-3.95-8.36-8.94-4.31-14.84,3.02-4.39,9.26-5.35,15.47-1.08,4.2,2.88,6.81,6.54,7.76,10.75l-5.95,1.97c-.78-3.45-3-6.31-5.57-8.08-2.53-1.74-4.64-1.55-5.73.03-1.22,1.78.61,3.86,3.17,6.66,3.67,3.98,8.32,9.09,4.3,14.95-3.32,4.83-9.26,6.1-16.38,1.21-5.07-3.48-7.54-7.68-8.32-11.89l6.02-2.15Z"/>
    <path class="cls-1" d="m410.38,85.43l-6.84-6.39,4.1-4.38,18.66,17.43-4.1,4.38-6.8-6.36-17.76,19.01-5.01-4.69,17.76-19.01Z"/>
  </g>
  <g>
    <path class="cls-1" d="m58.35,374.98l-6.98-12.48-5.8.94-3.66-6.54,33.98-4.82,4.17,7.46-21.92,26.39-3.63-6.49,3.83-4.46Zm-.94-13.77l5.18,9.26,10.24-11.78-15.42,2.52Z"/>
    <path class="cls-1" d="m80.67,396.45l-3.13-3.89-8.94,7.19-4.27-5.31,24.95-20.07,9.39,11.67c4.18,5.2,3.34,11.12-1.3,14.85-4.41,3.55-9,2.68-11.8.5l-4.99,13.25-4.91-6.1,5-12.09Zm12.8-7.52l-4.48-5.57-6.88,5.54,4.48,5.57c1.72,2.13,4.36,2.66,6.45.97,2.09-1.69,2.15-4.38.43-6.51Z"/>
    <path class="cls-1" d="m98.66,410.66c6.53-7.36,16.55-7.46,23.55-1.25,5.46,4.84,5.97,10.42,5.01,14.9l-6.29-1.73c.71-2.83-.07-6.29-2.73-8.64-4.17-3.69-10.29-3.15-14.3,1.37s-3.81,10.67.36,14.36c2.66,2.36,6.15,2.76,8.91,1.67l2.5,6c-4.37,1.45-9.96,1.69-15.42-3.15-7-6.21-8.12-16.17-1.59-23.53Z"/>
    <path class="cls-1" d="m146.16,449.63l-13.01-7.71-6.85,11.56-5.86-3.48,16.33-27.54,5.86,3.48-6.41,10.82,13,7.71,6.41-10.82,5.9,3.5-16.32,27.54-5.9-3.5,6.85-11.56Z"/>
    <path class="cls-1" d="m169.94,441.03l6.23,2.78-13.05,29.24-6.23-2.78,13.05-29.24Z"/>
    <path class="cls-1" d="m181.22,446.59l7.44,2.25,1.39,26.14,15.56-21.02,7.44,2.25-21.05,27.09-8.18-2.47-2.61-34.23Z"/>
    <path class="cls-1" d="m218.3,456.84l22.46,2.97-.77,5.81-15.7-2.08-.91,6.9,15.37,2.04-.77,5.81-15.37-2.04-.98,7.38,15.7,2.08-.77,5.85-22.46-2.97,4.2-31.74Z"/>
    <path class="cls-1" d="m250.48,482.49c2.3,2.31,5.84,4.21,10.26,4.12,3.74-.07,5.53-1.88,5.5-3.71-.05-2.4-2.85-3.16-6.56-3.95-5.25-1.1-12-2.4-12.14-9.56-.1-5.33,4.42-9.74,11.95-9.88,5.09-.1,9.34,1.35,12.57,4.22l-3.69,5.06c-2.64-2.35-6.12-3.38-9.24-3.32-3.07.06-4.68,1.44-4.64,3.36.04,2.16,2.74,2.78,6.46,3.57,5.3,1.1,12.05,2.55,12.19,9.65.12,5.86-3.97,10.35-12.61,10.52-6.14.12-10.6-1.86-13.68-4.82l3.64-5.26Z"/>
    <path class="cls-1" d="m321.72,477.02l-13.83,3.65-.54,5.85-7.24,1.91,3.8-34.11,8.26-2.18,20.1,27.8-7.19,1.9-3.36-4.82Zm-13.57-2.52l10.26-2.71-8.85-12.85-1.4,15.56Z"/>
    <path class="cls-1" d="m332.54,462.8c-4.03-8.98.01-18.16,8.55-21.99,6.66-2.98,11.95-1.15,15.64,1.56l-4.17,5.02c-2.29-1.82-5.76-2.52-9-1.07-5.08,2.28-7.11,8.08-4.63,13.6,2.47,5.52,8.16,7.86,13.24,5.59,3.24-1.45,5.04-4.47,5.19-7.43l6.5.19c-.47,4.58-2.56,9.78-9.22,12.76-8.54,3.83-18.08.74-22.11-8.24Z"/>
    <path class="cls-1" d="m368.62,433.29l-7.82,5.14-3.3-5.01,21.34-14.03,3.3,5.01-7.78,5.12,14.29,21.74-5.74,3.77-14.29-21.74Z"/>
    <path class="cls-1" d="m384.41,414.58l5.22-4.38,20.57,24.53-5.22,4.38-20.57-24.54Z"/>
    <path class="cls-1" d="m406.46,392.96c6.52-7.18,16.38-7.76,23.52-1.28,7.15,6.48,7.52,16.35,1.01,23.54-6.48,7.15-16.34,7.73-23.49,1.25s-7.52-16.35-1.04-23.5Zm4.48,4.06c-3.97,4.37-3.17,10.21,1.27,14.25,4.41,4,10.33,4.25,14.3-.12,3.97-4.37,3.17-10.28-1.24-14.28-4.44-4.03-10.37-4.22-14.33.15Z"/>
    <path class="cls-1" d="m434.44,375l18.13,11.56-3.66,5.75-26.99-17.21,3.77-5.91,25.46-1.36-17.48-11.15,3.66-5.75,26.99,17.21-3.54,5.54-26.34,1.31Z"/>
  </g>
  <g>
    <polygon class="cls-2" points="327.29 345.19 195.53 269.12 195.53 171.01 189.63 167.61 189.63 148.37 327.29 227.85 327.29 345.19"/>
    <polygon class="cls-2" points="417.05 293.37 327.29 345.19 327.29 227.85 422.37 172.96 422.37 192.19 417.05 195.27 417.05 293.37"/>
    <polygon class="cls-2" points="327.29 227.85 189.63 148.37 284.71 93.48 422.37 172.96 327.29 227.85"/>
    <path class="cls-1" d="m424.76,172.87s0-.1,0-.15c-.01-.11-.03-.22-.05-.32,0-.03-.02-.06-.02-.1-.03-.11-.07-.22-.12-.33-.02-.04-.04-.08-.06-.13-.05-.09-.1-.18-.16-.27-.02-.03-.04-.06-.06-.09-.08-.1-.16-.19-.25-.27-.03-.03-.07-.06-.1-.09-.1-.08-.2-.16-.31-.23,0,0-.02-.01-.02-.02l-137.66-79.48c-.74-.43-1.66-.43-2.4,0l-95.08,54.89s0,0,0,0c-.12.07-.24.16-.34.25-.03.02-.06.05-.08.07-.1.09-.19.19-.28.3,0,.01-.02.03-.03.04-.07.1-.14.21-.19.32-.02.03-.03.06-.05.1-.06.12-.11.25-.14.38,0,0,0,0,0,0-.03.13-.05.26-.07.39,0,.04,0,.08,0,.11,0,.04,0,.07,0,.11v19.24c0,.86.46,1.65,1.2,2.07l4.7,2.71v96.72c0,.86.46,1.65,1.2,2.07l131.74,76.06s.01,0,.02.01c.37.21.78.32,1.2.32s.83-.11,1.2-.32l89.75-51.82c.74-.43,1.2-1.22,1.2-2.08v-96.72l4.13-2.38c.74-.43,1.2-1.22,1.2-2.07v-19.24s0-.06,0-.09Zm-140.05-76.62l132.87,76.71-11.41,6.59c-.05-.24-.13-.47-.26-.69-.66-1.15-2.13-1.54-3.27-.88l-16.65,9.61c-1.15.66-1.54,2.13-.88,3.27.13.22.28.41.46.57l-27.78,16.04c-.05-.24-.13-.47-.26-.69-.66-1.15-2.13-1.54-3.27-.88l-16.65,9.61c-1.15.66-1.54,2.13-.88,3.27.13.22.28.41.46.57l-9.92,5.73-132.87-76.71,10.9-6.3c.03.35.12.69.31,1.02.44.77,1.25,1.2,2.08,1.2.41,0,.82-.1,1.2-.32l16.65-9.61c1.15-.66,1.54-2.13.88-3.27-.19-.32-.44-.58-.73-.77l27.99-16.16c.03.35.12.69.31,1.02.44.77,1.25,1.2,2.08,1.2.41,0,.82-.1,1.2-.32l16.65-9.61c1.15-.66,1.54-2.13.88-3.27-.19-.32-.44-.58-.73-.77l10.64-6.14Zm-92.68,56.28l132.87,76.71v13.7l-128.17-74s0,0,0,0l-4.7-2.71v-13.7Zm5.9,22.64l73.43,42.39,53.54,30.91v92.57l-126.97-73.31v-92.57Zm216.72,116.82l-84.96,49.05v-92.57l84.96-49.05v92.57Zm5.33-101.18l-64.21,37.07-26.08,15.06v-13.7s90.29-52.13,90.29-52.13v13.7Z"/>
    <path class="cls-1" d="m390.49,222.65c-.19-.13-.44-.15-.64-.03l-32.29,18.64c-.24.14-.36.43-.27.69l3.21,10.41c.05.17.18.31.35.38.07.03.14.04.22.04.1,0,.21-.03.3-.08l26.68-15.41c.15-.09.26-.24.29-.41l2.4-13.65c.04-.23-.06-.46-.25-.59Z"/>
    <g>
      <path class="cls-1" d="m337.44,289.55c-.1,0-.2-.05-.26-.15-.08-.14-.03-.33.11-.41l69.6-40.18c.14-.08.33-.03.41.11.08.14.03.33-.11.41l-69.6,40.18s-.1.04-.15.04Z"/>
      <path class="cls-1" d="m337.44,298.84c-.1,0-.2-.05-.26-.15-.08-.14-.03-.33.11-.41l69.6-40.18c.14-.08.33-.03.41.11.08.14.03.33-.11.41l-69.6,40.18s-.1.04-.15.04Z"/>
      <path class="cls-1" d="m337.44,308.12c-.1,0-.2-.05-.26-.15-.08-.14-.03-.33.11-.41l69.6-40.18c.14-.08.33-.03.41.11.08.14.03.33-.11.41l-69.6,40.18s-.1.04-.15.04Z"/>
      <path class="cls-1" d="m337.44,317.41c-.1,0-.2-.05-.26-.15-.08-.14-.03-.33.11-.41l69.6-40.18c.14-.08.33-.03.41.11.08.14.03.33-.11.41l-69.6,40.18s-.1.04-.15.04Z"/>
      <path class="cls-1" d="m337.44,326.69c-.1,0-.2-.05-.26-.15-.08-.14-.03-.33.11-.41l69.6-40.18c.14-.08.33-.03.41.11.08.14.03.33-.11.41l-69.6,40.18s-.1.04-.15.04Z"/>
    </g>
  </g>
  <g>
    <polygon class="cls-4" points="223.71 405.46 91.95 329.39 91.95 231.28 86.05 227.88 86.05 208.64 223.71 288.12 223.71 405.46"/>
    <polygon class="cls-4" points="313.47 353.64 223.71 405.46 223.71 288.12 318.79 233.23 318.79 252.46 313.47 255.54 313.47 353.64"/>
    <polygon class="cls-4" points="223.71 288.12 86.05 208.64 181.13 153.75 318.79 233.23 223.71 288.12"/>
    <path d="m321.18,233.14s0-.1,0-.15c-.01-.11-.03-.22-.05-.32,0-.03-.02-.06-.02-.1-.03-.11-.07-.22-.12-.33-.02-.04-.04-.08-.06-.13-.05-.09-.1-.18-.16-.27-.02-.03-.04-.06-.06-.09-.08-.1-.16-.19-.25-.27-.03-.03-.07-.06-.1-.09-.1-.08-.2-.16-.31-.23,0,0-.02-.01-.02-.02l-137.66-79.48c-.74-.43-1.66-.43-2.4,0l-95.08,54.89s0,0,0,0c-.12.07-.24.16-.34.25-.03.02-.06.05-.08.07-.1.09-.19.19-.28.3,0,.01-.02.03-.03.04-.07.1-.14.21-.19.32-.02.03-.03.06-.05.1-.06.12-.11.25-.14.38,0,0,0,0,0,0-.03.13-.05.26-.07.39,0,.04,0,.08,0,.11,0,.04,0,.07,0,.11v19.24c0,.86.46,1.65,1.2,2.07l4.7,2.71v96.72c0,.86.46,1.65,1.2,2.07l131.74,76.06s.01,0,.02.01c.37.21.78.32,1.2.32s.83-.11,1.2-.32l89.75-51.82c.74-.43,1.2-1.22,1.2-2.07v-96.72l4.13-2.38c.74-.43,1.2-1.22,1.2-2.08v-19.24s0-.06,0-.09Zm-140.05-76.62l132.87,76.71-11.41,6.59c-.05-.24-.13-.47-.26-.69-.66-1.15-2.13-1.54-3.27-.88l-16.65,9.61c-1.15.66-1.54,2.13-.88,3.27.13.22.28.41.46.57l-27.78,16.04c-.05-.24-.13-.47-.25-.69-.66-1.15-2.13-1.54-3.27-.88l-16.65,9.61c-1.15.66-1.54,2.13-.88,3.27.13.22.28.41.46.57l-9.92,5.73-132.87-76.71,10.91-6.3c.03.35.12.69.31,1.02.44.77,1.25,1.2,2.08,1.2.41,0,.82-.1,1.2-.32l16.65-9.61c1.15-.66,1.54-2.13.88-3.27-.19-.32-.44-.58-.73-.77l27.99-16.16c.03.35.12.69.31,1.02.44.77,1.25,1.2,2.08,1.2.41,0,.82-.1,1.2-.32l16.65-9.61c1.15-.66,1.54-2.13.88-3.27-.19-.32-.44-.58-.73-.77l10.64-6.14Zm-92.68,56.28l132.87,76.71v13.7l-128.17-74s0,0,0,0l-4.7-2.71v-13.7Zm5.9,22.64l73.43,42.39,53.54,30.91v92.57l-126.97-73.31v-92.57Zm216.72,116.82l-84.96,49.05v-92.57l84.96-49.05v92.57Zm5.33-101.18l-64.21,37.07-26.08,15.06v-13.7s90.29-52.13,90.29-52.13v13.7Z"/>
    <path d="m286.91,282.91c-.19-.13-.44-.15-.64-.03l-32.29,18.64c-.24.14-.36.43-.27.69l3.21,10.41c.05.17.18.31.35.38.07.03.14.04.22.04.1,0,.21-.03.3-.08l26.68-15.41c.15-.09.26-.24.29-.41l2.4-13.65c.04-.23-.06-.46-.25-.59Z"/>
    <g>
      <path class="cls-2" d="m233.86,349.82c-.1,0-.2-.05-.26-.15-.08-.14-.03-.33.11-.41l69.6-40.18c.14-.08.33-.03.41.11.08.14.03.33-.11.41l-69.6,40.18s-.1.04-.15.04Z"/>
      <path class="cls-2" d="m233.86,359.11c-.1,0-.2-.05-.26-.15-.08-.14-.03-.33.11-.41l69.6-40.18c.14-.08.33-.03.41.11.08.14.03.33-.11.41l-69.6,40.18s-.1.04-.15.04Z"/>
      <path class="cls-2" d="m233.86,368.39c-.1,0-.2-.05-.26-.15-.08-.14-.03-.33.11-.41l69.6-40.18c.14-.08.33-.03.41.11.08.14.03.33-.11.41l-69.6,40.18s-.1.04-.15.04Z"/>
      <path class="cls-2" d="m233.86,377.67c-.1,0-.2-.05-.26-.15-.08-.14-.03-.33.11-.41l69.6-40.18c.14-.08.33-.03.41.11.08.14.03.33-.11.41l-69.6,40.18s-.1.04-.15.04Z"/>
      <path class="cls-2" d="m233.86,386.96c-.1,0-.2-.05-.26-.15-.08-.14-.03-.33.11-.41l69.6-40.18c.14-.08.33-.03.41.11.08.14.03.33-.11.41l-69.6,40.18s-.1.04-.15.04Z"/>
    </g>
    <g>
      <path class="cls-2" d="m212.63,359.11c-.05,0-.1-.01-.15-.04l-58.51-33.78c-.14-.08-.19-.27-.11-.41.08-.14.27-.19.41-.11l58.51,33.78c.14.08.19.27.11.41-.05.1-.16.15-.26.15Z"/>
      <path class="cls-2" d="m212.63,368.39c-.05,0-.1-.01-.15-.04l-58.51-33.78c-.14-.08-.19-.27-.11-.41.08-.14.27-.19.41-.11l58.51,33.78c.14.08.19.27.11.41-.05.1-.16.15-.26.15Z"/>
      <path class="cls-2" d="m212.63,377.67c-.05,0-.1-.01-.15-.04l-58.51-33.78c-.14-.08-.19-.27-.11-.41.08-.14.27-.19.41-.11l58.51,33.78c.14.08.19.27.11.41-.05.1-.16.15-.26.15Z"/>
      <path class="cls-2" d="m212.63,386.96c-.05,0-.1-.01-.15-.04l-58.51-33.78c-.14-.08-.19-.27-.11-.41.08-.14.27-.19.41-.11l58.51,33.78c.14.08.19.27.11.41-.05.1-.16.15-.26.15Z"/>
    </g>
  </g>
</svg>