<?xml version="1.0" encoding="UTF-8"?>
<svg id="English" xmlns="http://www.w3.org/2000/svg" viewBox="0 0 512 512">
  <defs>
    <style>
      .cls-1, .cls-2 {
        fill: #fff;
      }

      .cls-3 {
        fill: #231f20;
      }

      .cls-4 {
        stroke-width: 5px;
      }

      .cls-4, .cls-5 {
        stroke: #fff;
        stroke-miterlimit: 10;
      }

      .cls-5 {
        fill: red;
      }

      .cls-2 {
        font-family: ProximaNova-Bold, 'Proxima Nova';
        font-size: 48px;
        font-weight: 700;
      }
    </style>
  </defs>
  <g id="Outer_Circle" data-name="Outer Circle">
    <circle class="cls-4" cx="256" cy="256" r="251.5"/>
  </g>
  <g id="Inner_Circle" data-name="Inner Circle">
    <circle class="cls-1" cx="256" cy="256" r="191"/>
  </g>
  <text class="cls-2" transform="translate(114.27 108.27) rotate(-39.17)"><tspan x="0" y="0">A</tspan></text>
  <text class="cls-2" transform="translate(141.42 86.28) rotate(-29.14)"><tspan x="0" y="0">N</tspan></text>
  <text class="cls-2" transform="translate(174.12 68.58) rotate(-19.73)"><tspan x="0" y="0">T</tspan></text>
  <text class="cls-2" transform="translate(203.4 58.71) rotate(-13.11)"><tspan x="0" y="0">I</tspan></text>
  <text class="cls-2" transform="translate(219.07 54.82) rotate(-6.54)"><tspan x="0" y="0">F</tspan></text>
  <text class="cls-2" transform="translate(246.68 51.48) rotate(2.07)"><tspan x="0" y="0">A</tspan></text>
  <text class="cls-2" transform="translate(281.43 53.06) rotate(11.22)"><tspan x="0" y="0">S</tspan></text>
  <text class="cls-2" transform="translate(311.93 59.12) rotate(20.42)"><tspan x="0" y="0">C</tspan></text>
  <text class="cls-2" transform="translate(345.13 72.33) rotate(27.71)"><tspan x="0" y="0">I</tspan></text>
  <text class="cls-2" transform="translate(359.53 79.57) rotate(34.48)"><tspan x="0" y="0">S</tspan></text>
  <text class="cls-2" transform="translate(384.9 97.23) rotate(43.06)"><tspan x="0" y="0">T</tspan></text>
  <text class="cls-2" transform="translate(42.03 357.11) rotate(60.77)"><tspan x="0" y="0">A</tspan></text>
  <text class="cls-2" transform="translate(62.35 391.97) rotate(51.18)"><tspan x="0" y="0">R</tspan></text>
  <text class="cls-2" transform="translate(86.84 421.54) rotate(41.55)"><tspan x="0" y="0">C</tspan></text>
  <text class="cls-2" transform="translate(117.71 448.39) rotate(30.66)"><tspan x="0" y="0">H</tspan></text>
  <text class="cls-2" transform="translate(153.99 468.98) rotate(24.05)"><tspan x="0" y="0">I</tspan></text>
  <text class="cls-2" transform="translate(172.21 477.31) rotate(16.78)"><tspan x="0" y="0">V</tspan></text>
  <text class="cls-2" transform="translate(210.96 488.17) rotate(7.54)"><tspan x="0" y="0">E</tspan></text>
  <text class="cls-2" transform="translate(245.97 492.28) rotate(-1.12)"><tspan x="0" y="0">S</tspan></text>
  <text class="cls-2" transform="translate(281.36 490.73) rotate(-7.7)"><tspan x="0" y="0"> </tspan></text>
  <text class="cls-2" transform="translate(300.34 488.38) rotate(-14.79)"><tspan x="0" y="0">A</tspan></text>
  <text class="cls-2" transform="translate(337.6 478.06) rotate(-24.14)"><tspan x="0" y="0">C</tspan></text>
  <text class="cls-2" transform="translate(374.09 460.84) rotate(-33.33)"><tspan x="0" y="0">T</tspan></text>
  <text class="cls-2" transform="translate(402.54 441.15) rotate(-39.98)"><tspan x="0" y="0">I</tspan></text>
  <text class="cls-2" transform="translate(418.24 428.41) rotate(-47.78)"><tspan x="0" y="0">O</tspan></text>
  <text class="cls-2" transform="translate(447.2 394.98) rotate(-57.48)"><tspan x="0" y="0">N</tspan></text>
  <g>
    <polygon class="cls-3" points="327.29 345.19 195.53 269.12 195.53 171.01 189.63 167.61 189.63 148.37 327.29 227.85 327.29 345.19"/>
    <polygon class="cls-3" points="417.05 293.37 327.29 345.19 327.29 227.85 422.37 172.96 422.37 192.19 417.05 195.27 417.05 293.37"/>
    <polygon class="cls-3" points="327.29 227.85 189.63 148.37 284.71 93.48 422.37 172.96 327.29 227.85"/>
    <path class="cls-1" d="m424.76,172.87s0-.1,0-.15c-.01-.11-.03-.22-.05-.32,0-.03-.02-.06-.02-.1-.03-.11-.07-.22-.12-.33-.02-.04-.04-.08-.06-.13-.05-.09-.1-.18-.16-.27-.02-.03-.04-.06-.06-.09-.08-.1-.16-.19-.25-.27-.03-.03-.07-.06-.1-.09-.1-.08-.2-.16-.31-.23,0,0-.02-.01-.02-.02l-137.66-79.48c-.74-.43-1.66-.43-2.4,0l-95.08,54.89s0,0,0,0c-.12.07-.24.16-.34.25-.03.02-.06.05-.08.07-.1.09-.19.19-.28.3,0,.01-.02.03-.03.04-.07.1-.14.21-.19.32-.02.03-.03.06-.05.1-.06.12-.11.25-.14.38,0,0,0,0,0,0-.03.13-.05.26-.07.39,0,.04,0,.08,0,.11,0,.04,0,.07,0,.11v19.24c0,.86.46,1.65,1.2,2.07l4.7,2.71v96.72c0,.86.46,1.65,1.2,2.07l131.74,76.06s.01,0,.02.01c.37.21.78.32,1.2.32s.83-.11,1.2-.32l89.75-51.82c.74-.43,1.2-1.22,1.2-2.08v-96.72l4.13-2.38c.74-.43,1.2-1.22,1.2-2.07v-19.24s0-.06,0-.09Zm-140.05-76.62l132.87,76.71-11.41,6.59c-.05-.24-.13-.47-.26-.69-.66-1.15-2.13-1.54-3.27-.88l-16.65,9.61c-1.15.66-1.54,2.13-.88,3.27.13.22.28.41.46.57l-27.78,16.04c-.05-.24-.13-.47-.26-.69-.66-1.15-2.13-1.54-3.27-.88l-16.65,9.61c-1.15.66-1.54,2.13-.88,3.27.13.22.28.41.46.57l-9.92,5.73-132.87-76.71,10.9-6.3c.03.35.12.69.31,1.02.44.77,1.25,1.2,2.08,1.2.41,0,.82-.1,1.2-.32l16.65-9.61c1.15-.66,1.54-2.13.88-3.27-.19-.32-.44-.58-.73-.77l27.99-16.16c.03.35.12.69.31,1.02.44.77,1.25,1.2,2.08,1.2.41,0,.82-.1,1.2-.32l16.65-9.61c1.15-.66,1.54-2.13.88-3.27-.19-.32-.44-.58-.73-.77l10.64-6.14Zm-92.68,56.28l132.87,76.71v13.7l-128.17-74s0,0,0,0l-4.7-2.71v-13.7Zm5.9,22.64l73.43,42.39,53.54,30.91v92.57l-126.97-73.31v-92.57Zm216.72,116.82l-84.96,49.05v-92.57l84.96-49.05v92.57Zm5.33-101.18l-64.21,37.07-26.08,15.06v-13.7s90.29-52.13,90.29-52.13v13.7Z"/>
    <path class="cls-1" d="m390.49,222.65c-.19-.13-.44-.15-.64-.03l-32.29,18.64c-.24.14-.36.43-.27.69l3.21,10.41c.05.17.18.31.35.38.07.03.14.04.22.04.1,0,.21-.03.3-.08l26.68-15.41c.15-.09.26-.24.29-.41l2.4-13.65c.04-.23-.06-.46-.25-.59Z"/>
    <g>
      <path class="cls-1" d="m337.44,289.55c-.1,0-.2-.05-.26-.15-.08-.14-.03-.33.11-.41l69.6-40.18c.14-.08.33-.03.41.11.08.14.03.33-.11.41l-69.6,40.18s-.1.04-.15.04Z"/>
      <path class="cls-1" d="m337.44,298.84c-.1,0-.2-.05-.26-.15-.08-.14-.03-.33.11-.41l69.6-40.18c.14-.08.33-.03.41.11.08.14.03.33-.11.41l-69.6,40.18s-.1.04-.15.04Z"/>
      <path class="cls-1" d="m337.44,308.12c-.1,0-.2-.05-.26-.15-.08-.14-.03-.33.11-.41l69.6-40.18c.14-.08.33-.03.41.11.08.14.03.33-.11.41l-69.6,40.18s-.1.04-.15.04Z"/>
      <path class="cls-1" d="m337.44,317.41c-.1,0-.2-.05-.26-.15-.08-.14-.03-.33.11-.41l69.6-40.18c.14-.08.33-.03.41.11.08.14.03.33-.11.41l-69.6,40.18s-.1.04-.15.04Z"/>
      <path class="cls-1" d="m337.44,326.69c-.1,0-.2-.05-.26-.15-.08-.14-.03-.33.11-.41l69.6-40.18c.14-.08.33-.03.41.11.08.14.03.33-.11.41l-69.6,40.18s-.1.04-.15.04Z"/>
    </g>
  </g>
  <g>
    <polygon class="cls-5" points="223.71 405.46 91.95 329.39 91.95 231.28 86.05 227.88 86.05 208.64 223.71 288.12 223.71 405.46"/>
    <polygon class="cls-5" points="313.47 353.64 223.71 405.46 223.71 288.12 318.79 233.23 318.79 252.46 313.47 255.54 313.47 353.64"/>
    <polygon class="cls-5" points="223.71 288.12 86.05 208.64 181.13 153.75 318.79 233.23 223.71 288.12"/>
    <path d="m321.18,233.14s0-.1,0-.15c-.01-.11-.03-.22-.05-.32,0-.03-.02-.06-.02-.1-.03-.11-.07-.22-.12-.33-.02-.04-.04-.08-.06-.13-.05-.09-.1-.18-.16-.27-.02-.03-.04-.06-.06-.09-.08-.1-.16-.19-.25-.27-.03-.03-.07-.06-.1-.09-.1-.08-.2-.16-.31-.23,0,0-.02-.01-.02-.02l-137.66-79.48c-.74-.43-1.66-.43-2.4,0l-95.08,54.89s0,0,0,0c-.12.07-.24.16-.34.25-.03.02-.06.05-.08.07-.1.09-.19.19-.28.3,0,.01-.02.03-.03.04-.07.1-.14.21-.19.32-.02.03-.03.06-.05.1-.06.12-.11.25-.14.38,0,0,0,0,0,0-.03.13-.05.26-.07.39,0,.04,0,.08,0,.11,0,.04,0,.07,0,.11v19.24c0,.86.46,1.65,1.2,2.07l4.7,2.71v96.72c0,.86.46,1.65,1.2,2.07l131.74,76.06s.01,0,.02.01c.37.21.78.32,1.2.32s.83-.11,1.2-.32l89.75-51.82c.74-.43,1.2-1.22,1.2-2.07v-96.72l4.13-2.38c.74-.43,1.2-1.22,1.2-2.08v-19.24s0-.06,0-.09Zm-140.05-76.62l132.87,76.71-11.41,6.59c-.05-.24-.13-.47-.26-.69-.66-1.15-2.13-1.54-3.27-.88l-16.65,9.61c-1.15.66-1.54,2.13-.88,3.27.13.22.28.41.46.57l-27.78,16.04c-.05-.24-.13-.47-.25-.69-.66-1.15-2.13-1.54-3.27-.88l-16.65,9.61c-1.15.66-1.54,2.13-.88,3.27.13.22.28.41.46.57l-9.92,5.73-132.87-76.71,10.91-6.3c.03.35.12.69.31,1.02.44.77,1.25,1.2,2.08,1.2.41,0,.82-.1,1.2-.32l16.65-9.61c1.15-.66,1.54-2.13.88-3.27-.19-.32-.44-.58-.73-.77l27.99-16.16c.03.35.12.69.31,1.02.44.77,1.25,1.2,2.08,1.2.41,0,.82-.1,1.2-.32l16.65-9.61c1.15-.66,1.54-2.13.88-3.27-.19-.32-.44-.58-.73-.77l10.64-6.14Zm-92.68,56.28l132.87,76.71v13.7l-128.17-74s0,0,0,0l-4.7-2.71v-13.7Zm5.9,22.64l73.43,42.39,53.54,30.91v92.57l-126.97-73.31v-92.57Zm216.72,116.82l-84.96,49.05v-92.57l84.96-49.05v92.57Zm5.33-101.18l-64.21,37.07-26.08,15.06v-13.7s90.29-52.13,90.29-52.13v13.7Z"/>
    <path d="m286.91,282.91c-.19-.13-.44-.15-.64-.03l-32.29,18.64c-.24.14-.36.43-.27.69l3.21,10.41c.05.17.18.31.35.38.07.03.14.04.22.04.1,0,.21-.03.3-.08l26.68-15.41c.15-.09.26-.24.29-.41l2.4-13.65c.04-.23-.06-.46-.25-.59Z"/>
    <g>
      <path class="cls-3" d="m233.86,349.82c-.1,0-.2-.05-.26-.15-.08-.14-.03-.33.11-.41l69.6-40.18c.14-.08.33-.03.41.11.08.14.03.33-.11.41l-69.6,40.18s-.1.04-.15.04Z"/>
      <path class="cls-3" d="m233.86,359.11c-.1,0-.2-.05-.26-.15-.08-.14-.03-.33.11-.41l69.6-40.18c.14-.08.33-.03.41.11.08.14.03.33-.11.41l-69.6,40.18s-.1.04-.15.04Z"/>
      <path class="cls-3" d="m233.86,368.39c-.1,0-.2-.05-.26-.15-.08-.14-.03-.33.11-.41l69.6-40.18c.14-.08.33-.03.41.11.08.14.03.33-.11.41l-69.6,40.18s-.1.04-.15.04Z"/>
      <path class="cls-3" d="m233.86,377.67c-.1,0-.2-.05-.26-.15-.08-.14-.03-.33.11-.41l69.6-40.18c.14-.08.33-.03.41.11.08.14.03.33-.11.41l-69.6,40.18s-.1.04-.15.04Z"/>
      <path class="cls-3" d="m233.86,386.96c-.1,0-.2-.05-.26-.15-.08-.14-.03-.33.11-.41l69.6-40.18c.14-.08.33-.03.41.11.08.14.03.33-.11.41l-69.6,40.18s-.1.04-.15.04Z"/>
    </g>
    <g>
      <path class="cls-3" d="m212.63,359.11c-.05,0-.1-.01-.15-.04l-58.51-33.78c-.14-.08-.19-.27-.11-.41.08-.14.27-.19.41-.11l58.51,33.78c.14.08.19.27.11.41-.05.1-.16.15-.26.15Z"/>
      <path class="cls-3" d="m212.63,368.39c-.05,0-.1-.01-.15-.04l-58.51-33.78c-.14-.08-.19-.27-.11-.41.08-.14.27-.19.41-.11l58.51,33.78c.14.08.19.27.11.41-.05.1-.16.15-.26.15Z"/>
      <path class="cls-3" d="m212.63,377.67c-.05,0-.1-.01-.15-.04l-58.51-33.78c-.14-.08-.19-.27-.11-.41.08-.14.27-.19.41-.11l58.51,33.78c.14.08.19.27.11.41-.05.1-.16.15-.26.15Z"/>
      <path class="cls-3" d="m212.63,386.96c-.05,0-.1-.01-.15-.04l-58.51-33.78c-.14-.08-.19-.27-.11-.41.08-.14.27-.19.41-.11l58.51,33.78c.14.08.19.27.11.41-.05.1-.16.15-.26.15Z"/>
    </g>
  </g>
</svg>