<?xml version="1.0" encoding="UTF-8"?>
<svg id="German" xmlns="http://www.w3.org/2000/svg" viewBox="0 0 508.59 509.75">
  <defs>
    <style>
      .cls-1, .cls-2 {
        fill: #fff;
      }

      .cls-3 {
        fill: #231f20;
      }

      .cls-4 {
        stroke-width: 5px;
      }

      .cls-4, .cls-5 {
        stroke: #fff;
        stroke-miterlimit: 10;
      }

      .cls-5 {
        fill: red;
      }

      .cls-2 {
        font-family: ProximaNova-Bold, 'Proxima Nova';
        font-size: 48px;
        font-weight: 700;
      }
    </style>
  </defs>
  <g id="Outer_Circle" data-name="Outer Circle">
    <circle class="cls-4" cx="254.65" cy="254.88" r="251.5"/>
  </g>
  <g id="Inner_Circle" data-name="Inner Circle">
    <circle class="cls-1" cx="254.65" cy="254.88" r="191"/>
  </g>
  <text class="cls-2" transform="translate(61.8 189.37) rotate(-66.69)"><tspan x="0" y="0">A</tspan></text>
  <text class="cls-2" transform="translate(75.71 157.33) rotate(-56.66)"><tspan x="0" y="0">N</tspan></text>
  <text class="cls-2" transform="translate(96.53 126.52) rotate(-47.25)"><tspan x="0" y="0">T</tspan></text>
  <text class="cls-2" transform="translate(117.94 104.24) rotate(-40.64)"><tspan x="0" y="0">I</tspan></text>
  <text class="cls-2" transform="translate(130.04 93.54) rotate(-34.06)"><tspan x="0" y="0">F</tspan></text>
  <text class="cls-2" transform="translate(152.97 77.83) rotate(-25.45)"><tspan x="0" y="0">A</tspan></text>
  <text class="cls-2" transform="translate(184.53 63.17) rotate(-16.31)"><tspan x="0" y="0">S</tspan></text>
  <text class="cls-2" transform="translate(214.38 54.44) rotate(-7.1)"><tspan x="0" y="0">C</tspan></text>
  <text class="cls-2" transform="translate(249.14 50.2) rotate(3.07)"><tspan x="0" y="0">H</tspan></text>
  <text class="cls-2" transform="translate(286.79 53.12) rotate(10.65)"><tspan x="0" y="0">I</tspan></text>
  <text class="cls-2" transform="translate(302.68 55.82) rotate(17.37)"><tspan x="0" y="0">S</tspan></text>
  <text class="cls-2" transform="translate(332.14 65.24) rotate(25.89)"><tspan x="0" y="0">T</tspan></text>
  <text class="cls-2" transform="translate(359.67 79.26) rotate(32.45)"><tspan x="0" y="0">I</tspan></text>
  <text class="cls-2" transform="translate(373.42 87.67) rotate(39.13)"><tspan x="0" y="0">S</tspan></text>
  <text class="cls-2" transform="translate(397.53 107.3) rotate(48.43)"><tspan x="0" y="0">C</tspan></text>
  <text class="cls-2" transform="translate(420.69 133.55) rotate(58.61)"><tspan x="0" y="0">H</tspan></text>
  <text class="cls-2" transform="translate(439.7 165.63) rotate(68.12)"><tspan x="0" y="0">E</tspan></text>
  <text class="cls-2" transform="translate(50.47 372.8) rotate(56.18)"><tspan x="0" y="0">A</tspan></text>
  <text class="cls-2" transform="translate(73.52 405.93) rotate(46.59)"><tspan x="0" y="0">R</tspan></text>
  <text class="cls-2" transform="translate(100.3 433.44) rotate(36.96)"><tspan x="0" y="0">C</tspan></text>
  <text class="cls-2" transform="translate(133.22 457.74) rotate(26.07)"><tspan x="0" y="0">H</tspan></text>
  <text class="cls-2" transform="translate(171.03 475.36) rotate(19.46)"><tspan x="0" y="0">I</tspan></text>
  <text class="cls-2" transform="translate(189.86 482.21) rotate(12.19)"><tspan x="0" y="0">V</tspan></text>
  <text class="cls-2" transform="translate(229.35 489.93) rotate(2.95)"><tspan x="0" y="0">E</tspan></text>
  <text class="cls-2" transform="translate(263.93 490.89) rotate(-3.56)"><tspan x="0" y="0"> </tspan></text>
  <text class="cls-2" transform="translate(283.03 489.91) rotate(-10.67)"><tspan x="0" y="0">A</tspan></text>
  <text class="cls-2" transform="translate(322.51 481.75) rotate(-20.12)"><tspan x="0" y="0">K</tspan></text>
  <text class="cls-2" transform="translate(357.81 468.11) rotate(-28.95)"><tspan x="0" y="0">T</tspan></text>
  <text class="cls-2" transform="translate(387.65 450.69) rotate(-35.55)"><tspan x="0" y="0">I</tspan></text>
  <text class="cls-2" transform="translate(404.26 439.22) rotate(-43.33)"><tspan x="0" y="0">O</tspan></text>
  <text class="cls-2" transform="translate(436.11 408.05) rotate(-53.99)"><tspan x="0" y="0">N</tspan></text>
  <g>
    <polygon class="cls-3" points="325.94 344.06 194.18 267.99 194.18 169.89 188.28 166.48 188.28 147.25 325.94 226.73 325.94 344.06"/>
    <polygon class="cls-3" points="415.7 292.25 325.94 344.06 325.94 226.73 421.02 171.83 421.02 191.07 415.7 194.14 415.7 292.25"/>
    <polygon class="cls-3" points="325.94 226.73 188.28 147.25 283.36 92.35 421.02 171.83 325.94 226.73"/>
    <path class="cls-1" d="m423.41,171.74s0-.1,0-.15c-.01-.11-.03-.22-.05-.32,0-.03-.02-.06-.02-.1-.03-.11-.07-.22-.12-.33-.02-.04-.04-.08-.06-.13-.05-.09-.1-.18-.16-.27-.02-.03-.04-.06-.06-.09-.08-.1-.16-.19-.25-.27-.03-.03-.07-.06-.1-.09-.1-.08-.2-.16-.31-.23,0,0-.02-.01-.02-.02l-137.66-79.48c-.74-.43-1.66-.43-2.4,0l-95.08,54.89s0,0,0,0c-.12.07-.24.16-.34.25-.03.02-.06.05-.08.07-.1.09-.19.19-.28.3,0,.01-.02.03-.03.04-.07.1-.14.21-.19.32-.02.03-.03.06-.05.1-.06.12-.11.25-.14.38,0,0,0,0,0,0-.03.13-.05.26-.07.39,0,.04,0,.08,0,.11,0,.04,0,.07,0,.11v19.24c0,.86.46,1.65,1.2,2.07l4.7,2.71v96.72c0,.86.46,1.65,1.2,2.07l131.74,76.06s.01,0,.02.01c.37.21.78.32,1.2.32s.83-.11,1.2-.32l89.75-51.82c.74-.43,1.2-1.22,1.2-2.08v-96.72l4.13-2.38c.74-.43,1.2-1.22,1.2-2.07v-19.24s0-.06,0-.09Zm-140.05-76.62l132.87,76.71-11.41,6.59c-.05-.24-.13-.47-.26-.69-.66-1.15-2.13-1.54-3.27-.88l-16.65,9.61c-1.15.66-1.54,2.13-.88,3.27.13.22.28.41.46.57l-27.78,16.04c-.05-.24-.13-.47-.26-.69-.66-1.15-2.13-1.54-3.27-.88l-16.65,9.61c-1.15.66-1.54,2.13-.88,3.27.13.22.28.41.46.57l-9.92,5.73-132.87-76.71,10.9-6.3c.03.35.12.69.31,1.02.44.77,1.25,1.2,2.08,1.2.41,0,.82-.1,1.2-.32l16.65-9.61c1.15-.66,1.54-2.13.88-3.27-.19-.32-.44-.58-.73-.77l27.99-16.16c.03.35.12.69.31,1.02.44.77,1.25,1.2,2.08,1.2.41,0,.82-.1,1.2-.32l16.65-9.61c1.15-.66,1.54-2.13.88-3.27-.19-.32-.44-.58-.73-.77l10.64-6.14Zm-92.68,56.28l132.87,76.71v13.7l-128.17-74s0,0,0,0l-4.7-2.71v-13.7Zm5.9,22.64l73.43,42.39,53.54,30.91v92.57l-126.97-73.31v-92.57Zm216.72,116.82l-84.96,49.05v-92.57l84.96-49.05v92.57Zm5.33-101.18l-64.21,37.07-26.08,15.06v-13.7s90.29-52.13,90.29-52.13v13.7Z"/>
    <path class="cls-1" d="m389.14,221.52c-.19-.13-.44-.15-.64-.03l-32.29,18.64c-.24.14-.36.43-.27.69l3.21,10.41c.05.17.18.31.35.38.07.03.14.04.22.04.1,0,.21-.03.3-.08l26.68-15.41c.15-.09.26-.24.29-.41l2.4-13.65c.04-.23-.06-.46-.25-.59Z"/>
    <g>
      <path class="cls-1" d="m336.09,288.43c-.1,0-.2-.05-.26-.15-.08-.14-.03-.33.11-.41l69.6-40.18c.14-.08.33-.03.41.11.08.14.03.33-.11.41l-69.6,40.18s-.1.04-.15.04Z"/>
      <path class="cls-1" d="m336.09,297.71c-.1,0-.2-.05-.26-.15-.08-.14-.03-.33.11-.41l69.6-40.18c.14-.08.33-.03.41.11.08.14.03.33-.11.41l-69.6,40.18s-.1.04-.15.04Z"/>
      <path class="cls-1" d="m336.09,307c-.1,0-.2-.05-.26-.15-.08-.14-.03-.33.11-.41l69.6-40.18c.14-.08.33-.03.41.11.08.14.03.33-.11.41l-69.6,40.18s-.1.04-.15.04Z"/>
      <path class="cls-1" d="m336.09,316.28c-.1,0-.2-.05-.26-.15-.08-.14-.03-.33.11-.41l69.6-40.18c.14-.08.33-.03.41.11.08.14.03.33-.11.41l-69.6,40.18s-.1.04-.15.04Z"/>
      <path class="cls-1" d="m336.09,325.57c-.1,0-.2-.05-.26-.15-.08-.14-.03-.33.11-.41l69.6-40.18c.14-.08.33-.03.41.11.08.14.03.33-.11.41l-69.6,40.18s-.1.04-.15.04Z"/>
    </g>
  </g>
  <g>
    <polygon class="cls-5" points="222.36 404.33 90.6 328.26 90.6 230.16 84.7 226.75 84.7 207.52 222.37 286.99 222.36 404.33"/>
    <polygon class="cls-5" points="312.12 352.52 222.36 404.33 222.37 286.99 317.44 232.1 317.44 251.34 312.12 254.41 312.12 352.52"/>
    <polygon class="cls-5" points="222.37 286.99 84.7 207.52 179.79 152.62 317.44 232.1 222.37 286.99"/>
    <path d="m319.83,232.01s0-.1,0-.15c-.01-.11-.03-.22-.05-.32,0-.03-.02-.06-.02-.1-.03-.11-.07-.22-.12-.33-.02-.04-.04-.08-.06-.13-.05-.09-.1-.18-.16-.27-.02-.03-.04-.06-.06-.09-.08-.1-.16-.19-.25-.27-.03-.03-.07-.06-.1-.09-.1-.08-.2-.16-.31-.23,0,0-.02-.01-.02-.02l-137.66-79.48c-.74-.43-1.66-.43-2.4,0l-95.08,54.89s0,0,0,0c-.12.07-.24.16-.34.25-.03.02-.06.05-.08.07-.1.09-.19.19-.28.3,0,.01-.02.03-.03.04-.07.1-.14.21-.19.32-.02.03-.03.06-.05.1-.06.12-.11.25-.14.38,0,0,0,0,0,0-.03.13-.05.26-.07.39,0,.04,0,.08,0,.11,0,.04,0,.07,0,.11v19.24c0,.86.46,1.65,1.2,2.07l4.7,2.71v96.72c0,.86.46,1.65,1.2,2.07l131.74,76.06s.01,0,.02.01c.37.21.78.32,1.2.32s.83-.11,1.2-.32l89.75-51.82c.74-.43,1.2-1.22,1.2-2.07v-96.72l4.13-2.38c.74-.43,1.2-1.22,1.2-2.08v-19.24s0-.06,0-.09Zm-140.05-76.62l132.87,76.71-11.41,6.59c-.05-.24-.13-.47-.26-.69-.66-1.15-2.13-1.54-3.27-.88l-16.65,9.61c-1.15.66-1.54,2.13-.88,3.27.13.22.28.41.46.57l-27.78,16.04c-.05-.24-.13-.47-.25-.69-.66-1.15-2.13-1.54-3.27-.88l-16.65,9.61c-1.15.66-1.54,2.13-.88,3.27.13.22.28.41.46.57l-9.92,5.73-132.87-76.71,10.91-6.3c.03.35.12.69.31,1.02.44.77,1.25,1.2,2.08,1.2.41,0,.82-.1,1.2-.32l16.65-9.61c1.15-.66,1.54-2.13.88-3.27-.19-.32-.44-.58-.73-.77l27.99-16.16c.03.35.12.69.31,1.02.44.77,1.25,1.2,2.08,1.2.41,0,.82-.1,1.2-.32l16.65-9.61c1.15-.66,1.54-2.13.88-3.27-.19-.32-.44-.58-.73-.77l10.64-6.14Zm-92.68,56.28l132.87,76.71v13.7l-128.17-74s0,0,0,0l-4.7-2.71v-13.7Zm5.9,22.64l73.43,42.39,53.54,30.91v92.57l-126.97-73.31v-92.57Zm216.72,116.82l-84.96,49.05v-92.57l84.96-49.05v92.57Zm5.33-101.18l-64.21,37.07-26.08,15.06v-13.7s90.29-52.13,90.29-52.13v13.7Z"/>
    <path d="m285.56,281.79c-.19-.13-.44-.15-.64-.03l-32.29,18.64c-.24.14-.36.43-.27.69l3.21,10.41c.05.17.18.31.35.38.07.03.14.04.22.04.1,0,.21-.03.3-.08l26.68-15.41c.15-.09.26-.24.29-.41l2.4-13.65c.04-.23-.06-.46-.25-.59Z"/>
    <g>
      <path class="cls-3" d="m232.51,348.7c-.1,0-.2-.05-.26-.15-.08-.14-.03-.33.11-.41l69.6-40.18c.14-.08.33-.03.41.11.08.14.03.33-.11.41l-69.6,40.18s-.1.04-.15.04Z"/>
      <path class="cls-3" d="m232.51,357.98c-.1,0-.2-.05-.26-.15-.08-.14-.03-.33.11-.41l69.6-40.18c.14-.08.33-.03.41.11.08.14.03.33-.11.41l-69.6,40.18s-.1.04-.15.04Z"/>
      <path class="cls-3" d="m232.51,367.27c-.1,0-.2-.05-.26-.15-.08-.14-.03-.33.11-.41l69.6-40.18c.14-.08.33-.03.41.11.08.14.03.33-.11.41l-69.6,40.18s-.1.04-.15.04Z"/>
      <path class="cls-3" d="m232.51,376.55c-.1,0-.2-.05-.26-.15-.08-.14-.03-.33.11-.41l69.6-40.18c.14-.08.33-.03.41.11.08.14.03.33-.11.41l-69.6,40.18s-.1.04-.15.04Z"/>
      <path class="cls-3" d="m232.51,385.83c-.1,0-.2-.05-.26-.15-.08-.14-.03-.33.11-.41l69.6-40.18c.14-.08.33-.03.41.11.08.14.03.33-.11.41l-69.6,40.18s-.1.04-.15.04Z"/>
    </g>
    <g>
      <path class="cls-3" d="m211.28,357.98c-.05,0-.1-.01-.15-.04l-58.51-33.78c-.14-.08-.19-.27-.11-.41.08-.14.27-.19.41-.11l58.51,33.78c.14.08.19.27.11.41-.05.1-.16.15-.26.15Z"/>
      <path class="cls-3" d="m211.28,367.27c-.05,0-.1-.01-.15-.04l-58.51-33.78c-.14-.08-.19-.27-.11-.41.08-.14.27-.19.41-.11l58.51,33.78c.14.08.19.27.11.41-.05.1-.16.15-.26.15Z"/>
      <path class="cls-3" d="m211.28,376.55c-.05,0-.1-.01-.15-.04l-58.51-33.78c-.14-.08-.19-.27-.11-.41.08-.14.27-.19.41-.11l58.51,33.78c.14.08.19.27.11.41-.05.1-.16.15-.26.15Z"/>
      <path class="cls-3" d="m211.28,385.83c-.05,0-.1-.01-.15-.04l-58.51-33.78c-.14-.08-.19-.27-.11-.41.08-.14.27-.19.41-.11l58.51,33.78c.14.08.19.27.11.41-.05.1-.16.15-.26.15Z"/>
    </g>
  </g>
</svg>