<?xml version="1.0" encoding="UTF-8"?>
<svg id="Italian" xmlns="http://www.w3.org/2000/svg" viewBox="0 0 512 512">
  <defs>
    <style>
      .cls-1 {
        fill: #fff;
      }

      .cls-2 {
        fill: #231f20;
      }

      .cls-3 {
        stroke-width: 5px;
      }

      .cls-3, .cls-4 {
        stroke: #fff;
        stroke-miterlimit: 10;
      }

      .cls-4 {
        fill: red;
      }
    </style>
  </defs>
  <g id="Outer_Circle" data-name="Outer Circle">
    <circle class="cls-3" cx="256" cy="256" r="251.5"/>
  </g>
  <g id="Inner_Circle" data-name="Inner Circle">
    <circle class="cls-1" cx="256" cy="256" r="191"/>
  </g>
  <g>
    <path class="cls-1" d="m54.51,198.14l-3.49,13.87,4.86,3.3-1.83,7.26-28.03-19.82,2.08-8.29,34.06-4.16-1.81,7.22-5.85.61Zm-8.77,10.66l2.59-10.29-15.53,1.54,12.94,8.75Z"/>
    <path class="cls-1" d="m58.75,184.34l-12.85-21.99-5.97,13.89-5.51-2.37,9.5-22.09,5.03,2.16,12.9,22,6.11-14.2,5.51,2.37-9.63,22.4-5.07-2.18Z"/>
    <path class="cls-1" d="m49.81,141.09l3.4-5.91,27.75,15.96-3.4,5.91-27.75-15.96Z"/>
    <path class="cls-1" d="m68.79,111.35c5.92-7.68,15.7-9.04,23.34-3.15,7.64,5.89,8.8,15.7,2.88,23.38-5.89,7.64-15.67,9-23.31,3.11-7.64-5.89-8.8-15.7-2.91-23.34Zm4.79,3.69c-3.61,4.67-2.35,10.43,2.4,14.1,4.71,3.64,10.64,3.42,14.24-1.26,3.61-4.67,2.34-10.5-2.37-14.13-4.75-3.66-10.67-3.38-14.27,1.3Z"/>
    <path class="cls-1" d="m100.31,92.63l14.3,16.06-5.09,4.53-21.29-23.91,5.23-4.66,24.87,5.62-13.79-15.48,5.09-4.53,21.29,23.91-4.91,4.37-25.7-5.9Z"/>
    <path class="cls-1" d="m120.86,62.17l19.17-12.07,3.12,4.96-13.4,8.44,3.71,5.89,13.12-8.26,3.12,4.96-13.12,8.26,3.96,6.3,13.4-8.44,3.15,5-19.17,12.07-17.05-27.09Z"/>
    <path class="cls-1" d="m168,36.56l11.97-4.01c9.52-3.19,18.14.66,21.21,9.81,3.06,9.15-1.53,17.37-11.04,20.55l-11.97,4.01-10.17-30.36Zm20.23,20.66c6.01-2.01,8.07-7.51,6.34-12.65-1.8-5.37-6.46-8.42-12.7-6.33l-5.51,1.84,6.36,18.98,5.51-1.84Z"/>
    <path class="cls-1" d="m208.15,24.59l22.38-3.58.92,5.78-15.64,2.5,1.1,6.87,15.31-2.45.93,5.78-15.31,2.45,1.17,7.35,15.64-2.5.93,5.83-22.37,3.58-5.06-31.62Z"/>
    <path class="cls-1" d="m258.81,19.42c6.62.04,10.78,3.29,13.2,7.09l-5.68,3.04c-1.47-2.27-4.2-4.06-7.56-4.08-5.81-.04-10.06,4.4-10.1,10.45-.04,6.05,4.16,10.54,9.96,10.58,2.93.02,5.53-1.17,6.93-2.4l.03-3.89-8.54-.06.04-5.86,15.26.1-.08,12.24c-3.29,3.63-7.86,6-13.67,5.96-9.36-.06-17-6.64-16.93-16.72.07-10.13,7.79-16.51,17.15-16.45Z"/>
    <path class="cls-1" d="m285.12,21.57l6.72,1.11-4.25,25.67,13.36,2.21-.98,5.92-20.08-3.33,5.24-31.59Z"/>
    <path class="cls-1" d="m316.15,27.75l6.57,1.83-8.62,30.84-6.57-1.83,8.62-30.84Z"/>
    <path class="cls-1" d="m358.37,73.05l-12.72-6.55-4.32,3.98-6.66-3.43,25.67-22.8,7.6,3.91-3.69,34.11-6.62-3.41.73-5.83Zm-8.39-10.96l9.43,4.86,2.03-15.48-11.46,10.62Z"/>
    <path class="cls-1" d="m384.79,83.21l-4-2.99-6.87,9.19-5.46-4.08,19.16-25.64,11.99,8.96c5.34,3.99,6,9.93,2.43,14.7-3.39,4.54-8.05,4.83-11.3,3.42l-1.53,14.07-6.27-4.68,1.83-12.95Zm10.52-10.47l-5.73-4.28-5.29,7.07,5.73,4.28c2.19,1.64,4.88,1.49,6.49-.66,1.61-2.15.99-4.77-1.2-6.41Z"/>
    <path class="cls-1" d="m405.04,93.45c7.12-6.79,17.12-6.04,23.58.74,5.03,5.28,5.07,10.88,3.74,15.27l-6.12-2.25c.95-2.76.46-6.27-1.99-8.84-3.84-4.03-9.99-4.01-14.36.16-4.38,4.17-4.7,10.31-.86,14.34,2.45,2.57,5.9,3.27,8.73,2.42l1.99,6.19c-4.47,1.08-10.07.84-15.1-4.44-6.46-6.78-6.72-16.8.4-23.58Z"/>
    <path class="cls-1" d="m441.47,142.24l-8.33-12.62-11.21,7.41-3.76-5.69,26.71-17.64,3.75,5.69-10.49,6.93,8.33,12.62,10.49-6.93,3.78,5.73-26.71,17.64-3.78-5.73,11.21-7.41Z"/>
    <path class="cls-1" d="m466.68,149.57l2.98,6.13-28.79,14.01-2.98-6.13,28.79-14.01Z"/>
    <path class="cls-1" d="m474.13,164.39l2.51,7.36-20.45,16.34,26.16.42,2.51,7.36-34.28-1.36-2.75-8.09,26.31-22.04Z"/>
    <path class="cls-1" d="m486.63,205.58l1.36,6.68-31.37,6.41-1.36-6.68,31.37-6.41Z"/>
  </g>
  <g>
    <path class="cls-1" d="m101.37,427.14l-10.3-9.92-5.28,2.58-5.39-5.2,31.13-14.46,6.15,5.93-13.33,31.61-5.36-5.16,2.38-5.37Zm-4.89-12.91l7.64,7.36,6.39-14.24-14.03,6.88Z"/>
    <path class="cls-1" d="m130.42,430.14l-11.96,17.87-5.66-3.79,17.81-26.6,5.82,3.9.79,25.48,11.53-17.23,5.66,3.79-17.81,26.6-5.46-3.66-.72-26.36Z"/>
    <path class="cls-1" d="m166.28,445.94l-8.53-3.85,2.47-5.47,23.27,10.5-2.47,5.47-8.49-3.83-10.7,23.71-6.26-2.82,10.7-23.71Z"/>
    <path class="cls-1" d="m190.54,449.24l6.49,2.07-9.74,30.5-6.49-2.07,9.74-30.5Z"/>
    <path class="cls-1" d="m205.97,454.04l22.22,4.43-1.15,5.74-15.53-3.1-1.36,6.83,15.2,3.03-1.14,5.74-15.21-3.03-2.61,13.09-6.68-1.33,6.26-31.4Z"/>
    <path class="cls-1" d="m252.39,486.62l-14.29-.68-2.28,5.42-7.48-.36,13.89-31.39,8.53.41,10.8,32.57-7.43-.35-1.75-5.61Zm-12.19-6.49l10.6.5-4.58-14.92-6.02,14.42Z"/>
    <path class="cls-1" d="m272.07,482.01c2.51,2.08,6.21,3.64,10.6,3.13,3.72-.43,5.33-2.4,5.12-4.21-.27-2.38-3.13-2.88-6.9-3.32-5.33-.6-12.17-1.26-12.99-8.37-.61-5.29,3.48-10.11,10.97-10.97,5.05-.58,9.42.47,12.9,3.02l-3.2,5.39c-2.85-2.09-6.41-2.79-9.5-2.44-3.05.35-4.52,1.87-4.3,3.78.25,2.15,2.99,2.51,6.76,2.95,5.38.59,12.24,1.4,13.04,8.46.67,5.82-2.98,10.68-11.56,11.66-6.1.7-10.72-.85-14.07-3.51l3.13-5.58Z"/>
    <path class="cls-1" d="m301.66,471.8c-2.69-9.47,2.63-17.96,11.64-20.52,7.02-1.99,11.99.59,15.25,3.8l-4.85,4.37c-2-2.13-5.34-3.33-8.75-2.36-5.36,1.52-8.2,6.97-6.55,12.79s6.94,8.96,12.29,7.44c3.42-.97,5.64-3.7,6.21-6.6l6.41,1.12c-1.13,4.46-3.95,9.3-10.96,11.3-9,2.56-18-1.88-20.69-11.34Z"/>
    <path class="cls-1" d="m332.78,445.04l6.27-2.67,12.56,29.45-6.27,2.67-12.56-29.45Z"/>
    <path class="cls-1" d="m359.97,457.25c3.13.92,7.15.89,10.98-1.31,3.25-1.86,3.95-4.31,3.04-5.89-1.19-2.08-4.01-1.41-7.65-.32-5.14,1.56-11.69,3.65-15.24-2.56-2.65-4.62-.79-10.66,5.75-14.41,4.42-2.53,8.85-3.29,13.05-2.32l-.81,6.22c-3.44-.79-6.99-.04-9.7,1.51-2.67,1.53-3.42,3.5-2.46,5.17,1.07,1.88,3.74,1.12,7.38.04,5.18-1.58,11.8-3.54,15.33,2.62,2.91,5.08,1.48,10.99-6.02,15.28-5.33,3.05-10.19,3.45-14.32,2.33l.67-6.36Z"/>
    <path class="cls-1" d="m383.58,422.85l-7.35,5.8-3.72-4.71,20.04-15.82,3.72,4.71-7.31,5.77,16.12,20.42-5.39,4.25-16.12-20.42Z"/>
    <path class="cls-1" d="m397.68,402.85l4.83-4.81,22.59,22.69-4.83,4.81-22.59-22.69Z"/>
  </g>
  <g>
    <polygon class="cls-2" points="327.29 345.19 195.53 269.12 195.53 171.01 189.63 167.61 189.63 148.37 327.29 227.85 327.29 345.19"/>
    <polygon class="cls-2" points="417.05 293.37 327.29 345.19 327.29 227.85 422.37 172.96 422.37 192.19 417.05 195.27 417.05 293.37"/>
    <polygon class="cls-2" points="327.29 227.85 189.63 148.37 284.71 93.48 422.37 172.96 327.29 227.85"/>
    <path class="cls-1" d="m424.76,172.87s0-.1,0-.15c-.01-.11-.03-.22-.05-.32,0-.03-.02-.06-.02-.1-.03-.11-.07-.22-.12-.33-.02-.04-.04-.08-.06-.13-.05-.09-.1-.18-.16-.27-.02-.03-.04-.06-.06-.09-.08-.1-.16-.19-.25-.27-.03-.03-.07-.06-.1-.09-.1-.08-.2-.16-.31-.23,0,0-.02-.01-.02-.02l-137.66-79.48c-.74-.43-1.66-.43-2.4,0l-95.08,54.89s0,0,0,0c-.12.07-.24.16-.34.25-.03.02-.06.05-.08.07-.1.09-.19.19-.28.3,0,.01-.02.03-.03.04-.07.1-.14.21-.19.32-.02.03-.03.06-.05.1-.06.12-.11.25-.14.38,0,0,0,0,0,0-.03.13-.05.26-.07.39,0,.04,0,.08,0,.11,0,.04,0,.07,0,.11v19.24c0,.86.46,1.65,1.2,2.07l4.7,2.71v96.72c0,.86.46,1.65,1.2,2.07l131.74,76.06s.01,0,.02.01c.37.21.78.32,1.2.32s.83-.11,1.2-.32l89.75-51.82c.74-.43,1.2-1.22,1.2-2.08v-96.72l4.13-2.38c.74-.43,1.2-1.22,1.2-2.07v-19.24s0-.06,0-.09Zm-140.05-76.62l132.87,76.71-11.41,6.59c-.05-.24-.13-.47-.26-.69-.66-1.15-2.13-1.54-3.27-.88l-16.65,9.61c-1.15.66-1.54,2.13-.88,3.27.13.22.28.41.46.57l-27.78,16.04c-.05-.24-.13-.47-.26-.69-.66-1.15-2.13-1.54-3.27-.88l-16.65,9.61c-1.15.66-1.54,2.13-.88,3.27.13.22.28.41.46.57l-9.92,5.73-132.87-76.71,10.9-6.3c.03.35.12.69.31,1.02.44.77,1.25,1.2,2.08,1.2.41,0,.82-.1,1.2-.32l16.65-9.61c1.15-.66,1.54-2.13.88-3.27-.19-.32-.44-.58-.73-.77l27.99-16.16c.03.35.12.69.31,1.02.44.77,1.25,1.2,2.08,1.2.41,0,.82-.1,1.2-.32l16.65-9.61c1.15-.66,1.54-2.13.88-3.27-.19-.32-.44-.58-.73-.77l10.64-6.14Zm-92.68,56.28l132.87,76.71v13.7l-128.17-74s0,0,0,0l-4.7-2.71v-13.7Zm5.9,22.64l73.43,42.39,53.54,30.91v92.57l-126.97-73.31v-92.57Zm216.72,116.82l-84.96,49.05v-92.57l84.96-49.05v92.57Zm5.33-101.18l-64.21,37.07-26.08,15.06v-13.7s90.29-52.13,90.29-52.13v13.7Z"/>
    <path class="cls-1" d="m390.49,222.65c-.19-.13-.44-.15-.64-.03l-32.29,18.64c-.24.14-.36.43-.27.69l3.21,10.41c.05.17.18.31.35.38.07.03.14.04.22.04.1,0,.21-.03.3-.08l26.68-15.41c.15-.09.26-.24.29-.41l2.4-13.65c.04-.23-.06-.46-.25-.59Z"/>
    <g>
      <path class="cls-1" d="m337.44,289.55c-.1,0-.2-.05-.26-.15-.08-.14-.03-.33.11-.41l69.6-40.18c.14-.08.33-.03.41.11.08.14.03.33-.11.41l-69.6,40.18s-.1.04-.15.04Z"/>
      <path class="cls-1" d="m337.44,298.84c-.1,0-.2-.05-.26-.15-.08-.14-.03-.33.11-.41l69.6-40.18c.14-.08.33-.03.41.11.08.14.03.33-.11.41l-69.6,40.18s-.1.04-.15.04Z"/>
      <path class="cls-1" d="m337.44,308.12c-.1,0-.2-.05-.26-.15-.08-.14-.03-.33.11-.41l69.6-40.18c.14-.08.33-.03.41.11.08.14.03.33-.11.41l-69.6,40.18s-.1.04-.15.04Z"/>
      <path class="cls-1" d="m337.44,317.41c-.1,0-.2-.05-.26-.15-.08-.14-.03-.33.11-.41l69.6-40.18c.14-.08.33-.03.41.11.08.14.03.33-.11.41l-69.6,40.18s-.1.04-.15.04Z"/>
      <path class="cls-1" d="m337.44,326.69c-.1,0-.2-.05-.26-.15-.08-.14-.03-.33.11-.41l69.6-40.18c.14-.08.33-.03.41.11.08.14.03.33-.11.41l-69.6,40.18s-.1.04-.15.04Z"/>
    </g>
  </g>
  <g>
    <polygon class="cls-4" points="223.71 405.46 91.95 329.39 91.95 231.28 86.05 227.88 86.05 208.64 223.71 288.12 223.71 405.46"/>
    <polygon class="cls-4" points="313.47 353.64 223.71 405.46 223.71 288.12 318.79 233.23 318.79 252.46 313.47 255.54 313.47 353.64"/>
    <polygon class="cls-4" points="223.71 288.12 86.05 208.64 181.13 153.75 318.79 233.23 223.71 288.12"/>
    <path d="m321.18,233.14s0-.1,0-.15c-.01-.11-.03-.22-.05-.32,0-.03-.02-.06-.02-.1-.03-.11-.07-.22-.12-.33-.02-.04-.04-.08-.06-.13-.05-.09-.1-.18-.16-.27-.02-.03-.04-.06-.06-.09-.08-.1-.16-.19-.25-.27-.03-.03-.07-.06-.1-.09-.1-.08-.2-.16-.31-.23,0,0-.02-.01-.02-.02l-137.66-79.48c-.74-.43-1.66-.43-2.4,0l-95.08,54.89s0,0,0,0c-.12.07-.24.16-.34.25-.03.02-.06.05-.08.07-.1.09-.19.19-.28.3,0,.01-.02.03-.03.04-.07.1-.14.21-.19.32-.02.03-.03.06-.05.1-.06.12-.11.25-.14.38,0,0,0,0,0,0-.03.13-.05.26-.07.39,0,.04,0,.08,0,.11,0,.04,0,.07,0,.11v19.24c0,.86.46,1.65,1.2,2.07l4.7,2.71v96.72c0,.86.46,1.65,1.2,2.07l131.74,76.06s.01,0,.02.01c.37.21.78.32,1.2.32s.83-.11,1.2-.32l89.75-51.82c.74-.43,1.2-1.22,1.2-2.07v-96.72l4.13-2.38c.74-.43,1.2-1.22,1.2-2.08v-19.24s0-.06,0-.09Zm-140.05-76.62l132.87,76.71-11.41,6.59c-.05-.24-.13-.47-.26-.69-.66-1.15-2.13-1.54-3.27-.88l-16.65,9.61c-1.15.66-1.54,2.13-.88,3.27.13.22.28.41.46.57l-27.78,16.04c-.05-.24-.13-.47-.25-.69-.66-1.15-2.13-1.54-3.27-.88l-16.65,9.61c-1.15.66-1.54,2.13-.88,3.27.13.22.28.41.46.57l-9.92,5.73-132.87-76.71,10.91-6.3c.03.35.12.69.31,1.02.44.77,1.25,1.2,2.08,1.2.41,0,.82-.1,1.2-.32l16.65-9.61c1.15-.66,1.54-2.13.88-3.27-.19-.32-.44-.58-.73-.77l27.99-16.16c.03.35.12.69.31,1.02.44.77,1.25,1.2,2.08,1.2.41,0,.82-.1,1.2-.32l16.65-9.61c1.15-.66,1.54-2.13.88-3.27-.19-.32-.44-.58-.73-.77l10.64-6.14Zm-92.68,56.28l132.87,76.71v13.7l-128.17-74s0,0,0,0l-4.7-2.71v-13.7Zm5.9,22.64l73.43,42.39,53.54,30.91v92.57l-126.97-73.31v-92.57Zm216.72,116.82l-84.96,49.05v-92.57l84.96-49.05v92.57Zm5.33-101.18l-64.21,37.07-26.08,15.06v-13.7s90.29-52.13,90.29-52.13v13.7Z"/>
    <path d="m286.91,282.91c-.19-.13-.44-.15-.64-.03l-32.29,18.64c-.24.14-.36.43-.27.69l3.21,10.41c.05.17.18.31.35.38.07.03.14.04.22.04.1,0,.21-.03.3-.08l26.68-15.41c.15-.09.26-.24.29-.41l2.4-13.65c.04-.23-.06-.46-.25-.59Z"/>
    <g>
      <path class="cls-2" d="m233.86,349.82c-.1,0-.2-.05-.26-.15-.08-.14-.03-.33.11-.41l69.6-40.18c.14-.08.33-.03.41.11.08.14.03.33-.11.41l-69.6,40.18s-.1.04-.15.04Z"/>
      <path class="cls-2" d="m233.86,359.11c-.1,0-.2-.05-.26-.15-.08-.14-.03-.33.11-.41l69.6-40.18c.14-.08.33-.03.41.11.08.14.03.33-.11.41l-69.6,40.18s-.1.04-.15.04Z"/>
      <path class="cls-2" d="m233.86,368.39c-.1,0-.2-.05-.26-.15-.08-.14-.03-.33.11-.41l69.6-40.18c.14-.08.33-.03.41.11.08.14.03.33-.11.41l-69.6,40.18s-.1.04-.15.04Z"/>
      <path class="cls-2" d="m233.86,377.67c-.1,0-.2-.05-.26-.15-.08-.14-.03-.33.11-.41l69.6-40.18c.14-.08.33-.03.41.11.08.14.03.33-.11.41l-69.6,40.18s-.1.04-.15.04Z"/>
      <path class="cls-2" d="m233.86,386.96c-.1,0-.2-.05-.26-.15-.08-.14-.03-.33.11-.41l69.6-40.18c.14-.08.33-.03.41.11.08.14.03.33-.11.41l-69.6,40.18s-.1.04-.15.04Z"/>
    </g>
    <g>
      <path class="cls-2" d="m212.63,359.11c-.05,0-.1-.01-.15-.04l-58.51-33.78c-.14-.08-.19-.27-.11-.41.08-.14.27-.19.41-.11l58.51,33.78c.14.08.19.27.11.41-.05.1-.16.15-.26.15Z"/>
      <path class="cls-2" d="m212.63,368.39c-.05,0-.1-.01-.15-.04l-58.51-33.78c-.14-.08-.19-.27-.11-.41.08-.14.27-.19.41-.11l58.51,33.78c.14.08.19.27.11.41-.05.1-.16.15-.26.15Z"/>
      <path class="cls-2" d="m212.63,377.67c-.05,0-.1-.01-.15-.04l-58.51-33.78c-.14-.08-.19-.27-.11-.41.08-.14.27-.19.41-.11l58.51,33.78c.14.08.19.27.11.41-.05.1-.16.15-.26.15Z"/>
      <path class="cls-2" d="m212.63,386.96c-.05,0-.1-.01-.15-.04l-58.51-33.78c-.14-.08-.19-.27-.11-.41.08-.14.27-.19.41-.11l58.51,33.78c.14.08.19.27.11.41-.05.1-.16.15-.26.15Z"/>
    </g>
  </g>
</svg>