<?xml version="1.0" encoding="UTF-8"?>
<svg xmlns="http://www.w3.org/2000/svg" viewBox="0 0 512 512">
  <defs>
    <style>
      .cls-1, .cls-2 {
        fill: #fff;
      }

      .cls-3 {
        fill: #231f20;
      }

      .cls-4 {
        stroke-width: 5px;
      }

      .cls-4, .cls-5 {
        stroke: #fff;
        stroke-miterlimit: 10;
      }

      .cls-5 {
        fill: red;
      }

      .cls-2 {
        font-family: ProximaNova-Bold, 'Proxima Nova';
        font-size: 48px;
        font-weight: 700;
      }
    </style>
  </defs>
  <g id="English">
    <text class="cls-2" transform="translate(42.02 -236.98) rotate(60.77)"><tspan x="0" y="0">A</tspan></text>
    <text class="cls-2" transform="translate(62.34 -202.12) rotate(51.18)"><tspan x="0" y="0">R</tspan></text>
    <text class="cls-2" transform="translate(86.84 -172.55) rotate(41.55)"><tspan x="0" y="0">C</tspan></text>
    <text class="cls-2" transform="translate(117.71 -145.7) rotate(30.66)"><tspan x="0" y="0">H</tspan></text>
    <text class="cls-2" transform="translate(153.99 -125.11) rotate(24.05)"><tspan x="0" y="0">I</tspan></text>
    <text class="cls-2" transform="translate(172.21 -116.77) rotate(16.78)"><tspan x="0" y="0">V</tspan></text>
    <text class="cls-2" transform="translate(210.95 -105.92) rotate(7.54)"><tspan x="0" y="0">E</tspan></text>
    <text class="cls-2" transform="translate(245.97 -101.81) rotate(-1.12)"><tspan x="0" y="0">S</tspan></text>
    <text class="cls-2" transform="translate(281.36 -103.36) rotate(-7.7)"><tspan x="0" y="0"> </tspan></text>
    <text class="cls-2" transform="translate(300.34 -105.71) rotate(-14.79)"><tspan x="0" y="0">A</tspan></text>
    <text class="cls-2" transform="translate(337.59 -116.03) rotate(-24.14)"><tspan x="0" y="0">C</tspan></text>
    <text class="cls-2" transform="translate(374.09 -133.25) rotate(-33.33)"><tspan x="0" y="0">T</tspan></text>
    <text class="cls-2" transform="translate(402.54 -152.94) rotate(-39.98)"><tspan x="0" y="0">I</tspan></text>
    <text class="cls-2" transform="translate(418.24 -165.68) rotate(-47.78)"><tspan x="0" y="0">O</tspan></text>
    <text class="cls-2" transform="translate(447.2 -199.11) rotate(-57.48)"><tspan x="0" y="0">N</tspan></text>
  </g>
  <g id="French">
    <g id="Outer_Circle" data-name="Outer Circle">
      <circle class="cls-4" cx="256" cy="256" r="251.5"/>
    </g>
    <g id="Inner_Circle" data-name="Inner Circle">
      <circle class="cls-1" cx="256" cy="256" r="191"/>
    </g>
    <g>
      <path class="cls-1" d="m54.91,196.77l-3.58,13.85,4.84,3.33-1.88,7.25-27.89-20.01,2.14-8.27,34.08-3.92-1.86,7.2-5.85.57Zm-8.84,10.6l2.66-10.27-15.54,1.43,12.88,8.84Z"/>
      <path class="cls-1" d="m48.82,180.61c-9-3.98-12.14-13.5-8.35-22.06,2.95-6.67,8.11-8.85,12.67-9.31l.27,6.52c-2.91.18-5.97,1.98-7.4,5.23-2.25,5.09.12,10.76,5.66,13.21s11.32.39,13.57-4.71c1.44-3.25.76-6.7-1.12-9l4.96-4.21c2.71,3.72,4.64,8.98,1.69,15.65-3.78,8.56-12.94,12.65-21.94,8.67Z"/>
      <path class="cls-1" d="m61.3,133.46l-5.1,7.85-5.03-3.27,13.9-21.42,5.03,3.27-5.07,7.81,21.82,14.17-3.74,5.76-21.82-14.17Z"/>
      <path class="cls-1" d="m72.02,108.06l4.34-5.25,24.67,20.4-4.34,5.25-24.67-20.4Z"/>
      <path class="cls-1" d="m95.77,81.91c7.13-6.57,17.01-6.26,23.54.84,6.53,7.1,6.02,16.96-1.11,23.53-7.1,6.53-16.97,6.22-23.51-.88-6.53-7.1-6.02-16.96,1.08-23.5Zm4.1,4.45c-4.34,4-4.08,9.88-.02,14.3,4.03,4.38,9.91,5.17,14.25,1.17,4.34-4,4.08-9.95.05-14.33-4.06-4.42-9.94-5.13-14.29-1.14Z"/>
      <path class="cls-1" d="m130.01,68.8l11.38,18.24-5.78,3.61-16.95-27.16,5.95-3.71,23.56,9.74-10.98-17.59,5.78-3.61,16.95,27.16-5.58,3.48-24.33-10.16Z"/>
      <path class="cls-1" d="m172.4,34.84l12.05-3.77c9.57-3,18.12,1.02,21,10.23,2.88,9.21-1.87,17.33-11.45,20.33l-12.05,3.77-9.56-30.56Zm19.81,21.06c6.05-1.89,8.21-7.35,6.59-12.52-1.69-5.41-6.29-8.54-12.57-6.58l-5.54,1.73,5.98,19.1,5.54-1.73Z"/>
      <path class="cls-1" d="m212.78,23.68l22.44-3.13.81,5.8-15.69,2.19.96,6.89,15.35-2.14.81,5.8-15.36,2.14,1.03,7.37,15.69-2.19.81,5.85-22.44,3.13-4.42-31.71Z"/>
      <path class="cls-1" d="m249.04,42.14c2.22,2.38,5.7,4.4,10.12,4.46,3.74.05,5.59-1.7,5.62-3.53.03-2.4-2.74-3.25-6.42-4.17-5.22-1.27-11.92-2.8-11.82-9.95.07-5.33,4.74-9.58,12.27-9.49,5.09.07,9.29,1.66,12.42,4.63l-3.86,4.94c-2.56-2.43-6-3.58-9.12-3.63-3.07-.04-4.72,1.28-4.75,3.2-.03,2.16,2.65,2.87,6.33,3.78,5.26,1.27,11.96,2.94,11.87,10.05-.08,5.86-4.31,10.21-12.95,10.1-6.14-.08-10.53-2.21-13.52-5.27l3.81-5.13Z"/>
      <path class="cls-1" d="m315.22,54.9l-13.85-3.58-3.33,4.84-7.25-1.87,20-27.9,8.27,2.13,3.94,34.09-7.2-1.86-.57-5.85Zm-10.61-8.84l10.27,2.65-1.44-15.54-8.83,12.89Z"/>
      <path class="cls-1" d="m343.22,58.98l-4.56-2.03-4.66,10.48-6.23-2.77,13.01-29.25,13.68,6.09c6.09,2.71,8.05,8.36,5.63,13.8-2.3,5.17-6.78,6.49-10.27,5.83l1.62,14.06-7.15-3.18-1.08-13.04Zm7.94-12.54l-6.53-2.91-3.59,8.07,6.53,2.91c2.5,1.11,5.09.37,6.18-2.08,1.09-2.46-.09-4.87-2.59-5.99Z"/>
      <path class="cls-1" d="m365.23,64.47c5.43-8.21,15.34-9.7,23.15-4.54,6.08,4.03,7.37,9.48,7.05,14.05l-6.47-.83c.31-2.9-.95-6.21-3.91-8.17-4.64-3.07-10.63-1.68-13.96,3.36-3.34,5.04-2.28,11.1,2.36,14.17,2.96,1.96,6.48,1.87,9.05.41l3.32,5.59c-4.12,2.05-9.63,3.07-15.71-.96-7.8-5.17-10.3-14.88-4.87-23.08Z"/>
      <path class="cls-1" d="m411.65,103.9l-10.94-10.44-9.28,9.73-4.93-4.71,22.1-23.17,4.93,4.71-8.68,9.1,10.94,10.44,8.68-9.1,4.97,4.74-22.1,23.17-4.97-4.74,9.28-9.73Z"/>
      <path class="cls-1" d="m437.85,105.45l4.27,5.31-24.96,20.04-4.27-5.31,24.96-20.04Z"/>
      <path class="cls-1" d="m448.43,118.27l4.06,6.63-16.36,20.43,25.62-5.33,4.06,6.63-33.75,6.2-4.46-7.29,20.84-27.28Z"/>
      <path class="cls-1" d="m470.07,156.07l8.64,20.94-5.41,2.23-6.04-14.64-6.43,2.66,5.91,14.33-5.41,2.23-5.91-14.33-6.88,2.84,6.04,14.64-5.46,2.25-8.64-20.94,29.59-12.21Z"/>
      <path class="cls-1" d="m461.29,195.8c-1.75,2.75-2.82,6.62-1.76,10.91.89,3.63,3.05,4.98,4.82,4.55,2.33-.57,2.46-3.47,2.42-7.27-.08-5.37-.29-12.24,6.66-13.94,5.17-1.27,10.47,2.17,12.27,9.49,1.21,4.94.73,9.41-1.36,13.18l-5.75-2.49c1.71-3.09,1.96-6.71,1.21-9.74-.73-2.98-2.43-4.25-4.29-3.79-2.1.52-2.11,3.29-2.06,7.08.1,5.41.16,12.32-6.74,14.01-5.69,1.4-10.97-1.6-13.03-9.99-1.47-5.97-.52-10.75,1.7-14.4l5.93,2.4Z"/>
    </g>
    <g>
      <path class="cls-1" d="m84.25,409.95l-9.2-10.95-5.52,2.01-4.82-5.73,32.48-11.12,5.5,6.54-16.57,30.04-4.79-5.7,2.93-5.09Zm-3.51-13.35l6.82,8.12,7.85-13.49-14.67,5.37Z"/>
      <path class="cls-1" d="m112.82,415.99l-13.77,16.51-5.23-4.36,20.5-24.58,5.38,4.49-1.89,25.42,13.28-15.92,5.23,4.37-20.5,24.58-5.05-4.21,2.05-26.29Z"/>
      <path class="cls-1" d="m146.83,435.47l-8.08-4.73,3.03-5.18,22.04,12.89-3.03,5.18-8.04-4.7-13.13,22.46-5.92-3.46,13.13-22.46Z"/>
      <path class="cls-1" d="m170.61,441.29l6.24,2.74-12.89,29.31-6.24-2.75,12.89-29.31Z"/>
      <path class="cls-1" d="m185.48,447.7l21.63,6.74-1.74,5.59-15.12-4.71-2.07,6.64,14.8,4.61-1.74,5.59-14.8-4.61-3.97,12.74-6.51-2.03,9.52-30.57Z"/>
      <path class="cls-1" d="m228.2,484.97l-14.14-2.18-2.83,5.15-7.4-1.14,17.11-29.76,8.44,1.3,7.32,33.52-7.35-1.13-1.15-5.76Zm-11.44-7.73l10.48,1.61-2.98-15.32-7.5,13.71Z"/>
      <path class="cls-1" d="m248.24,482.45c2.28,2.33,5.8,4.27,10.21,4.23,3.74-.03,5.55-1.82,5.54-3.65-.02-2.4-2.81-3.19-6.51-4.02-5.24-1.15-11.97-2.54-12.04-9.69-.05-5.33,4.52-9.69,12.06-9.75,5.09-.04,9.32,1.46,12.52,4.35l-3.75,5.02c-2.61-2.38-6.08-3.45-9.2-3.42-3.07.03-4.69,1.38-4.67,3.3.02,2.16,2.71,2.81,6.42,3.64,5.29,1.15,12.02,2.68,12.08,9.78.05,5.85-4.08,10.31-12.72,10.38-6.14.05-10.58-1.97-13.63-4.97l3.7-5.22Z"/>
      <path class="cls-1" d="m278.75,475.4c-1.68-9.7,4.51-17.59,13.73-19.18,7.19-1.25,11.87,1.84,14.77,5.38l-5.28,3.84c-1.77-2.32-4.96-3.87-8.46-3.26-5.49.95-8.89,6.07-7.86,12.03,1.03,5.96,5.96,9.64,11.44,8.69,3.5-.61,5.99-3.08,6.87-5.91l6.25,1.79c-1.59,4.32-4.9,8.84-12.09,10.08-9.22,1.6-17.7-3.75-19.38-13.45Z"/>
      <path class="cls-1" d="m312.53,452.05l6.52-2,9.4,30.6-6.52,2-9.4-30.6Z"/>
      <path class="cls-1" d="m338.26,467.05c3.01,1.24,7.01,1.63,11.06-.15,3.43-1.51,4.38-3.87,3.65-5.54-.97-2.2-3.84-1.82-7.58-1.12-5.27,1.01-12,2.4-14.88-4.15-2.15-4.88.33-10.69,7.23-13.72,4.66-2.05,9.14-2.35,13.22-.94l-1.46,6.1c-3.34-1.15-6.95-.77-9.8.49-2.81,1.24-3.76,3.12-2.99,4.88.87,1.98,3.6,1.51,7.33.81,5.32-1.03,12.11-2.29,14.97,4.22,2.36,5.36.32,11.08-7.59,14.57-5.62,2.48-10.5,2.37-14.48.81l1.34-6.25Z"/>
      <path class="cls-1" d="m365.35,435.32l-7.92,5-3.2-5.07,21.59-13.63,3.2,5.07-7.88,4.97,13.88,22-5.8,3.66-13.88-22Z"/>
      <path class="cls-1" d="m381.23,417.44l17.15-14.8,3.83,4.43-11.99,10.35,4.55,5.27,11.74-10.13,3.83,4.43-11.74,10.13,4.86,5.63,11.99-10.35,3.86,4.47-17.15,14.8-20.92-24.24Z"/>
      <path class="cls-1" d="m421.77,410.46c3.25-.19,7.03-1.57,9.9-4.93,2.43-2.85,2.27-5.39.88-6.57-1.83-1.56-4.25.03-7.31,2.28-4.31,3.2-9.77,7.37-15.21,2.72-4.05-3.46-4.34-9.77.56-15.5,3.31-3.87,7.22-6.08,11.5-6.59l1.33,6.13c-3.51.41-6.59,2.32-8.62,4.69-2,2.34-2.04,4.45-.58,5.7,1.64,1.4,3.9-.2,6.96-2.45,4.34-3.23,9.91-7.31,15.32-2.7,4.45,3.81,5.1,9.85-.52,16.42-3.99,4.67-8.43,6.69-12.69,7.02l-1.51-6.21Z"/>
    </g>
    <g>
      <polygon class="cls-3" points="327.29 345.19 195.53 269.12 195.53 171.01 189.63 167.61 189.63 148.37 327.29 227.85 327.29 345.19"/>
      <polygon class="cls-3" points="417.05 293.37 327.29 345.19 327.29 227.85 422.37 172.96 422.37 192.19 417.05 195.27 417.05 293.37"/>
      <polygon class="cls-3" points="327.29 227.85 189.63 148.37 284.71 93.48 422.37 172.96 327.29 227.85"/>
      <path class="cls-1" d="m424.76,172.87s0-.1,0-.15c-.01-.11-.03-.22-.05-.32,0-.03-.02-.06-.02-.1-.03-.11-.07-.22-.12-.33-.02-.04-.04-.08-.06-.13-.05-.09-.1-.18-.16-.27-.02-.03-.04-.06-.06-.09-.08-.1-.16-.19-.25-.27-.03-.03-.07-.06-.1-.09-.1-.08-.2-.16-.31-.23,0,0-.02-.01-.02-.02l-137.66-79.48c-.74-.43-1.66-.43-2.4,0l-95.08,54.89s0,0,0,0c-.12.07-.24.16-.34.25-.03.02-.06.05-.08.07-.1.09-.19.19-.28.3,0,.01-.02.03-.03.04-.07.1-.14.21-.19.32-.02.03-.03.06-.05.1-.06.12-.11.25-.14.38,0,0,0,0,0,0-.03.13-.05.26-.07.39,0,.04,0,.08,0,.11,0,.04,0,.07,0,.11v19.24c0,.86.46,1.65,1.2,2.07l4.7,2.71v96.72c0,.86.46,1.65,1.2,2.07l131.74,76.06s.01,0,.02.01c.37.21.78.32,1.2.32s.83-.11,1.2-.32l89.75-51.82c.74-.43,1.2-1.22,1.2-2.08v-96.72l4.13-2.38c.74-.43,1.2-1.22,1.2-2.07v-19.24s0-.06,0-.09Zm-140.05-76.62l132.87,76.71-11.41,6.59c-.05-.24-.13-.47-.26-.69-.66-1.15-2.13-1.54-3.27-.88l-16.65,9.61c-1.15.66-1.54,2.13-.88,3.27.13.22.28.41.46.57l-27.78,16.04c-.05-.24-.13-.47-.26-.69-.66-1.15-2.13-1.54-3.27-.88l-16.65,9.61c-1.15.66-1.54,2.13-.88,3.27.13.22.28.41.46.57l-9.92,5.73-132.87-76.71,10.9-6.3c.03.35.12.69.31,1.02.44.77,1.25,1.2,2.08,1.2.41,0,.82-.1,1.2-.32l16.65-9.61c1.15-.66,1.54-2.13.88-3.27-.19-.32-.44-.58-.73-.77l27.99-16.16c.03.35.12.69.31,1.02.44.77,1.25,1.2,2.08,1.2.41,0,.82-.1,1.2-.32l16.65-9.61c1.15-.66,1.54-2.13.88-3.27-.19-.32-.44-.58-.73-.77l10.64-6.14Zm-92.68,56.28l132.87,76.71v13.7l-128.17-74s0,0,0,0l-4.7-2.71v-13.7Zm5.9,22.64l73.43,42.39,53.54,30.91v92.57l-126.97-73.31v-92.57Zm216.72,116.82l-84.96,49.05v-92.57l84.96-49.05v92.57Zm5.33-101.18l-64.21,37.07-26.08,15.06v-13.7s90.29-52.13,90.29-52.13v13.7Z"/>
      <path class="cls-1" d="m390.49,222.65c-.19-.13-.44-.15-.64-.03l-32.29,18.64c-.24.14-.36.43-.27.69l3.21,10.41c.05.17.18.31.35.38.07.03.14.04.22.04.1,0,.21-.03.3-.08l26.68-15.41c.15-.09.26-.24.29-.41l2.4-13.65c.04-.23-.06-.46-.25-.59Z"/>
      <g>
        <path class="cls-1" d="m337.44,289.55c-.1,0-.2-.05-.26-.15-.08-.14-.03-.33.11-.41l69.6-40.18c.14-.08.33-.03.41.11.08.14.03.33-.11.41l-69.6,40.18s-.1.04-.15.04Z"/>
        <path class="cls-1" d="m337.44,298.84c-.1,0-.2-.05-.26-.15-.08-.14-.03-.33.11-.41l69.6-40.18c.14-.08.33-.03.41.11.08.14.03.33-.11.41l-69.6,40.18s-.1.04-.15.04Z"/>
        <path class="cls-1" d="m337.44,308.12c-.1,0-.2-.05-.26-.15-.08-.14-.03-.33.11-.41l69.6-40.18c.14-.08.33-.03.41.11.08.14.03.33-.11.41l-69.6,40.18s-.1.04-.15.04Z"/>
        <path class="cls-1" d="m337.44,317.41c-.1,0-.2-.05-.26-.15-.08-.14-.03-.33.11-.41l69.6-40.18c.14-.08.33-.03.41.11.08.14.03.33-.11.41l-69.6,40.18s-.1.04-.15.04Z"/>
        <path class="cls-1" d="m337.44,326.69c-.1,0-.2-.05-.26-.15-.08-.14-.03-.33.11-.41l69.6-40.18c.14-.08.33-.03.41.11.08.14.03.33-.11.41l-69.6,40.18s-.1.04-.15.04Z"/>
      </g>
    </g>
    <g>
      <polygon class="cls-5" points="223.71 405.46 91.95 329.39 91.95 231.28 86.05 227.88 86.05 208.64 223.71 288.12 223.71 405.46"/>
      <polygon class="cls-5" points="313.47 353.64 223.71 405.46 223.71 288.12 318.79 233.23 318.79 252.46 313.47 255.54 313.47 353.64"/>
      <polygon class="cls-5" points="223.71 288.12 86.05 208.64 181.13 153.75 318.79 233.23 223.71 288.12"/>
      <path d="m321.18,233.14s0-.1,0-.15c-.01-.11-.03-.22-.05-.32,0-.03-.02-.06-.02-.1-.03-.11-.07-.22-.12-.33-.02-.04-.04-.08-.06-.13-.05-.09-.1-.18-.16-.27-.02-.03-.04-.06-.06-.09-.08-.1-.16-.19-.25-.27-.03-.03-.07-.06-.1-.09-.1-.08-.2-.16-.31-.23,0,0-.02-.01-.02-.02l-137.66-79.48c-.74-.43-1.66-.43-2.4,0l-95.08,54.89s0,0,0,0c-.12.07-.24.16-.34.25-.03.02-.06.05-.08.07-.1.09-.19.19-.28.3,0,.01-.02.03-.03.04-.07.1-.14.21-.19.32-.02.03-.03.06-.05.1-.06.12-.11.25-.14.38,0,0,0,0,0,0-.03.13-.05.26-.07.39,0,.04,0,.08,0,.11,0,.04,0,.07,0,.11v19.24c0,.86.46,1.65,1.2,2.07l4.7,2.71v96.72c0,.86.46,1.65,1.2,2.07l131.74,76.06s.01,0,.02.01c.37.21.78.32,1.2.32s.83-.11,1.2-.32l89.75-51.82c.74-.43,1.2-1.22,1.2-2.07v-96.72l4.13-2.38c.74-.43,1.2-1.22,1.2-2.08v-19.24s0-.06,0-.09Zm-140.05-76.62l132.87,76.71-11.41,6.59c-.05-.24-.13-.47-.26-.69-.66-1.15-2.13-1.54-3.27-.88l-16.65,9.61c-1.15.66-1.54,2.13-.88,3.27.13.22.28.41.46.57l-27.78,16.04c-.05-.24-.13-.47-.25-.69-.66-1.15-2.13-1.54-3.27-.88l-16.65,9.61c-1.15.66-1.54,2.13-.88,3.27.13.22.28.41.46.57l-9.92,5.73-132.87-76.71,10.91-6.3c.03.35.12.69.31,1.02.44.77,1.25,1.2,2.08,1.2.41,0,.82-.1,1.2-.32l16.65-9.61c1.15-.66,1.54-2.13.88-3.27-.19-.32-.44-.58-.73-.77l27.99-16.16c.03.35.12.69.31,1.02.44.77,1.25,1.2,2.08,1.2.41,0,.82-.1,1.2-.32l16.65-9.61c1.15-.66,1.54-2.13.88-3.27-.19-.32-.44-.58-.73-.77l10.64-6.14Zm-92.68,56.28l132.87,76.71v13.7l-128.17-74s0,0,0,0l-4.7-2.71v-13.7Zm5.9,22.64l73.43,42.39,53.54,30.91v92.57l-126.97-73.31v-92.57Zm216.72,116.82l-84.96,49.05v-92.57l84.96-49.05v92.57Zm5.33-101.18l-64.21,37.07-26.08,15.06v-13.7s90.29-52.13,90.29-52.13v13.7Z"/>
      <path d="m286.91,282.91c-.19-.13-.44-.15-.64-.03l-32.29,18.64c-.24.14-.36.43-.27.69l3.21,10.41c.05.17.18.31.35.38.07.03.14.04.22.04.1,0,.21-.03.3-.08l26.68-15.41c.15-.09.26-.24.29-.41l2.4-13.65c.04-.23-.06-.46-.25-.59Z"/>
      <g>
        <path class="cls-3" d="m233.86,349.82c-.1,0-.2-.05-.26-.15-.08-.14-.03-.33.11-.41l69.6-40.18c.14-.08.33-.03.41.11.08.14.03.33-.11.41l-69.6,40.18s-.1.04-.15.04Z"/>
        <path class="cls-3" d="m233.86,359.11c-.1,0-.2-.05-.26-.15-.08-.14-.03-.33.11-.41l69.6-40.18c.14-.08.33-.03.41.11.08.14.03.33-.11.41l-69.6,40.18s-.1.04-.15.04Z"/>
        <path class="cls-3" d="m233.86,368.39c-.1,0-.2-.05-.26-.15-.08-.14-.03-.33.11-.41l69.6-40.18c.14-.08.33-.03.41.11.08.14.03.33-.11.41l-69.6,40.18s-.1.04-.15.04Z"/>
        <path class="cls-3" d="m233.86,377.67c-.1,0-.2-.05-.26-.15-.08-.14-.03-.33.11-.41l69.6-40.18c.14-.08.33-.03.41.11.08.14.03.33-.11.41l-69.6,40.18s-.1.04-.15.04Z"/>
        <path class="cls-3" d="m233.86,386.96c-.1,0-.2-.05-.26-.15-.08-.14-.03-.33.11-.41l69.6-40.18c.14-.08.33-.03.41.11.08.14.03.33-.11.41l-69.6,40.18s-.1.04-.15.04Z"/>
      </g>
      <g>
        <path class="cls-3" d="m212.63,359.11c-.05,0-.1-.01-.15-.04l-58.51-33.78c-.14-.08-.19-.27-.11-.41.08-.14.27-.19.41-.11l58.51,33.78c.14.08.19.27.11.41-.05.1-.16.15-.26.15Z"/>
        <path class="cls-3" d="m212.63,368.39c-.05,0-.1-.01-.15-.04l-58.51-33.78c-.14-.08-.19-.27-.11-.41.08-.14.27-.19.41-.11l58.51,33.78c.14.08.19.27.11.41-.05.1-.16.15-.26.15Z"/>
        <path class="cls-3" d="m212.63,377.67c-.05,0-.1-.01-.15-.04l-58.51-33.78c-.14-.08-.19-.27-.11-.41.08-.14.27-.19.41-.11l58.51,33.78c.14.08.19.27.11.41-.05.1-.16.15-.26.15Z"/>
        <path class="cls-3" d="m212.63,386.96c-.05,0-.1-.01-.15-.04l-58.51-33.78c-.14-.08-.19-.27-.11-.41.08-.14.27-.19.41-.11l58.51,33.78c.14.08.19.27.11.41-.05.1-.16.15-.26.15Z"/>
      </g>
    </g>
  </g>
</svg>