<?xml version="1.0" encoding="UTF-8"?>
<svg id="German" xmlns="http://www.w3.org/2000/svg" viewBox="0 0 508.59 509.75">
  <defs>
    <style>
      .cls-1 {
        fill: #fff;
      }

      .cls-2 {
        fill: #231f20;
      }

      .cls-3 {
        stroke-width: 5px;
      }

      .cls-3, .cls-4 {
        stroke: #fff;
        stroke-miterlimit: 10;
      }

      .cls-4 {
        fill: red;
      }
    </style>
  </defs>
  <g id="Outer_Circle" data-name="Outer Circle">
    <circle class="cls-3" cx="254.65" cy="254.88" r="251.5"/>
  </g>
  <g id="Inner_Circle" data-name="Inner Circle">
    <circle class="cls-1" cx="254.65" cy="254.88" r="191"/>
  </g>
  <g>
    <path class="cls-1" d="m66.06,165.55l-5.66,13.13,4.27,4.04-2.96,6.88-24.5-24.05,3.38-7.85,34.28,1.35-2.95,6.83-5.87-.33Zm-10.36,9.12l4.2-9.74-15.58-.96,11.38,10.71Z"/>
    <path class="cls-1" d="m63.23,137.17l17.96,11.82-3.75,5.69-26.75-17.6,3.85-5.85,25.48-.99-17.32-11.4,3.75-5.69,26.75,17.6-3.61,5.49-26.36.93Z"/>
    <path class="cls-1" d="m84.6,101.1l-6.35,6.88-4.41-4.07,17.33-18.75,4.41,4.07-6.32,6.84,19.1,17.66-4.66,5.04-19.1-17.66Z"/>
    <path class="cls-1" d="m99.49,77.88l5.17-4.44,20.85,24.29-5.17,4.44-20.85-24.3Z"/>
    <path class="cls-1" d="m114.74,65.25l18.77-12.69,3.28,4.85-13.12,8.87,3.9,5.76,12.84-8.68,3.28,4.85-12.84,8.68,7.47,11.05-5.65,3.82-17.93-26.52Z"/>
    <path class="cls-1" d="m171.87,62.72l-12.92,6.15.55,5.85-6.76,3.22-2.58-34.23,7.71-3.67,24.89,23.6-6.72,3.2-4.19-4.12Zm-13.8.03l9.58-4.56-11.08-10.99,1.5,15.55Z"/>
    <path class="cls-1" d="m186.33,52.54c2.83,1.62,6.74,2.53,10.98,1.29,3.59-1.05,4.85-3.27,4.33-5.02-.67-2.3-3.57-2.3-7.36-2.1-5.36.32-12.21.82-14.22-6.04-1.5-5.11,1.71-10.55,8.95-12.67,4.88-1.43,9.37-1.14,13.23.78l-2.24,5.86c-3.16-1.58-6.79-1.66-9.78-.79-2.95.86-4.14,2.61-3.6,4.45.61,2.07,3.38,1.96,7.16,1.75,5.4-.33,12.3-.7,14.29,6.12,1.64,5.62-1.12,11.03-9.41,13.46-5.9,1.73-10.71.98-14.47-1.07l2.14-6.03Z"/>
    <path class="cls-1" d="m214.02,38.38c-1.22-9.76,5.34-17.35,14.62-18.51,7.24-.9,11.76,2.4,14.5,6.08l-5.46,3.58c-1.65-2.41-4.77-4.1-8.29-3.66-5.53.69-9.17,5.64-8.42,11.64.75,6,5.49,9.91,11.02,9.22,3.53-.44,6.13-2.8,7.14-5.58l6.16,2.09c-1.79,4.24-5.31,8.6-12.55,9.5-9.29,1.16-17.5-4.59-18.72-14.36Z"/>
    <path class="cls-1" d="m274.93,38.12l-15.1-.81-.72,13.42-6.81-.37,1.71-31.97,6.81.36-.67,12.56,15.1.81.67-12.56,6.86.37-1.71,31.97-6.86-.37.72-13.42Z"/>
    <path class="cls-1" d="m295.82,22.24l6.7,1.26-5.92,31.47-6.7-1.26,5.92-31.47Z"/>
    <path class="cls-1" d="m310.07,47.97c1.45,2.92,4.21,5.84,8.42,7.16,3.57,1.12,5.84-.03,6.39-1.77.72-2.29-1.7-3.9-4.96-5.83-4.63-2.71-10.62-6.09-8.48-12.91,1.59-5.08,7.28-7.83,14.47-5.58,4.86,1.52,8.43,4.25,10.58,7.99l-5.11,3.63c-1.76-3.07-4.72-5.15-7.7-6.08-2.93-.92-4.89-.12-5.46,1.71-.64,2.06,1.72,3.51,4.99,5.43,4.68,2.72,10.62,6.24,8.5,13.02-1.75,5.59-7.05,8.56-15.3,5.97-5.86-1.84-9.46-5.12-11.44-8.91l5.12-3.83Z"/>
    <path class="cls-1" d="m352.99,46.45l-8.42-4.09,2.62-5.4,22.97,11.15-2.62,5.4-8.38-4.07-11.36,23.4-6.17-3,11.36-23.4Z"/>
    <path class="cls-1" d="m379.52,53.95l5.75,3.66-17.18,27.01-5.75-3.66,17.18-27.01Z"/>
    <path class="cls-1" d="m383.19,83.12c.27,3.25,1.74,6.98,5.17,9.77,2.9,2.36,5.44,2.13,6.59.72,1.51-1.86-.13-4.25-2.45-7.25-3.3-4.23-7.6-9.59-3.09-15.13,3.36-4.13,9.66-4.58,15.51.18,3.95,3.21,6.25,7.07,6.86,11.34l-6.09,1.48c-.5-3.5-2.48-6.53-4.9-8.5-2.38-1.94-4.5-1.93-5.71-.44-1.36,1.68.3,3.89,2.62,6.9,3.34,4.26,7.55,9.73,3.07,15.24-3.69,4.54-9.72,5.33-16.42-.12-4.77-3.88-6.89-8.26-7.33-12.52l6.17-1.66Z"/>
    <path class="cls-1" d="m410.57,97.91c7.36-6.53,17.33-5.42,23.54,1.58,4.84,5.46,4.68,11.06,3.19,15.39l-6.04-2.47c1.05-2.73.68-6.25-1.68-8.91-3.7-4.17-9.84-4.36-14.36-.35-4.53,4.01-5.06,10.14-1.37,14.3,2.36,2.66,5.78,3.47,8.64,2.73l1.77,6.26c-4.51.92-10.1.48-14.94-4.98-6.21-7-6.12-17.03,1.24-23.56Z"/>
    <path class="cls-1" d="m445.24,147.97l-7.87-12.91-11.47,7-3.55-5.82,27.33-16.67,3.55,5.82-10.74,6.55,7.87,12.91,10.74-6.55,3.57,5.86-27.33,16.67-3.57-5.86,11.47-7Z"/>
    <path class="cls-1" d="m470.59,156.63l8.44,21.02-5.43,2.18-5.9-14.7-6.46,2.59,5.78,14.39-5.43,2.18-5.78-14.39-6.9,2.77,5.9,14.7-5.48,2.2-8.44-21.02,29.71-11.93Z"/>
  </g>
  <g>
    <path class="cls-1" d="m68.17,389.31l-7.96-11.88-5.71,1.4-4.17-6.22,33.49-7.53,4.75,7.1-19.74,28.06-4.14-6.18,3.46-4.75Zm-2.04-13.65l5.9,8.81,9.26-12.56-15.17,3.75Z"/>
    <path class="cls-1" d="m92.14,408.92l-3.43-3.63-8.33,7.88-4.68-4.95,23.26-22,10.29,10.88c4.59,4.85,4.22,10.81-.11,14.91-4.11,3.89-8.75,3.39-11.72,1.44l-3.91,13.61-5.38-5.69,4.01-12.45Zm12.16-8.52l-4.92-5.2-6.42,6.07,4.92,5.2c1.88,1.99,4.55,2.3,6.51.45,1.95-1.85,1.79-4.54-.09-6.52Z"/>
    <path class="cls-1" d="m111.21,421.65c5.92-7.86,15.9-8.76,23.38-3.13,5.83,4.39,6.78,9.91,6.19,14.45l-6.41-1.22c.49-2.88-.58-6.26-3.41-8.4-4.45-3.35-10.51-2.32-14.14,2.51-3.64,4.83-2.95,10.94,1.5,14.29,2.84,2.13,6.35,2.26,9.01.95l2.98,5.78c-4.24,1.8-9.79,2.48-15.62-1.91-7.48-5.63-9.38-15.47-3.47-23.33Z"/>
    <path class="cls-1" d="m161.68,456.7l-13.58-6.64-5.91,12.07-6.12-3,14.07-28.75,6.12,3-5.53,11.3,13.58,6.64,5.53-11.29,6.17,3.02-14.07,28.76-6.17-3.02,5.91-12.07Z"/>
    <path class="cls-1" d="m184.69,446.22l6.43,2.27-10.67,30.19-6.43-2.27,10.67-30.19Z"/>
    <path class="cls-1" d="m196.38,450.87l7.6,1.64,3.48,25.94,13.83-22.2,7.6,1.64-18.82,28.69-8.35-1.8-5.34-33.91Z"/>
    <path class="cls-1" d="m234.16,458.12l22.63,1.17-.3,5.85-15.82-.82-.36,6.95,15.49.8-.3,5.85-15.48-.8-.38,7.43,15.82.82-.3,5.9-22.63-1.17,1.65-31.98Z"/>
    <path class="cls-1" d="m305.17,480.13l-14.06,2.65-.96,5.8-7.36,1.38,6.24-33.75,8.4-1.58,18.05,29.18-7.31,1.38-3-5.05Zm-13.36-3.49l10.42-1.96-7.91-13.46-2.52,15.42Z"/>
    <path class="cls-1" d="m329.82,465.42l-1.32,3.65,3.38,9.24-6.4,2.34-11.01-30.07,6.4-2.34,4.92,13.43,5.72-17.33,7.89-2.89-6.78,18.48,18.6,11.29-7.89,2.89-13.51-8.7Z"/>
    <path class="cls-1" d="m354.45,440.24l-8.19,4.53-2.9-5.25,22.34-12.36,2.9,5.25-8.15,4.51,12.59,22.76-6,3.32-12.59-22.76Z"/>
    <path class="cls-1" d="m371.62,422.8l5.54-3.96,18.61,26.04-5.54,3.96-18.61-26.04Z"/>
    <path class="cls-1" d="m395.27,402.96c7.05-6.65,16.93-6.47,23.55.55,6.62,7.02,6.23,16.89-.82,23.54-7.02,6.62-16.89,6.43-23.51-.58-6.62-7.02-6.23-16.89.79-23.51Zm4.15,4.4c-4.29,4.05-3.96,9.93.16,14.3,4.08,4.33,9.97,5.04,14.27.99,4.29-4.05,3.96-10-.12-14.33-4.12-4.37-10.01-5.01-14.3-.96Z"/>
    <path class="cls-1" d="m424.59,387.32l17.39,12.64-4.01,5.51-25.9-18.83,4.12-5.67,25.49.2-16.77-12.19,4.01-5.51,25.9,18.83-3.87,5.32-26.37-.3Z"/>
  </g>
  <g>
    <polygon class="cls-2" points="325.94 344.06 194.18 267.99 194.18 169.89 188.28 166.48 188.28 147.25 325.94 226.73 325.94 344.06"/>
    <polygon class="cls-2" points="415.7 292.25 325.94 344.06 325.94 226.73 421.02 171.83 421.02 191.07 415.7 194.14 415.7 292.25"/>
    <polygon class="cls-2" points="325.94 226.73 188.28 147.25 283.36 92.35 421.02 171.83 325.94 226.73"/>
    <path class="cls-1" d="m423.41,171.74s0-.1,0-.15c-.01-.11-.03-.22-.05-.32,0-.03-.02-.06-.02-.1-.03-.11-.07-.22-.12-.33-.02-.04-.04-.08-.06-.13-.05-.09-.1-.18-.16-.27-.02-.03-.04-.06-.06-.09-.08-.1-.16-.19-.25-.27-.03-.03-.07-.06-.1-.09-.1-.08-.2-.16-.31-.23,0,0-.02-.01-.02-.02l-137.66-79.48c-.74-.43-1.66-.43-2.4,0l-95.08,54.89s0,0,0,0c-.12.07-.24.16-.34.25-.03.02-.06.05-.08.07-.1.09-.19.19-.28.3,0,.01-.02.03-.03.04-.07.1-.14.21-.19.32-.02.03-.03.06-.05.1-.06.12-.11.25-.14.38,0,0,0,0,0,0-.03.13-.05.26-.07.39,0,.04,0,.08,0,.11,0,.04,0,.07,0,.11v19.24c0,.86.46,1.65,1.2,2.07l4.7,2.71v96.72c0,.86.46,1.65,1.2,2.07l131.74,76.06s.01,0,.02.01c.37.21.78.32,1.2.32s.83-.11,1.2-.32l89.75-51.82c.74-.43,1.2-1.22,1.2-2.08v-96.72l4.13-2.38c.74-.43,1.2-1.22,1.2-2.07v-19.24s0-.06,0-.09Zm-140.05-76.62l132.87,76.71-11.41,6.59c-.05-.24-.13-.47-.26-.69-.66-1.15-2.13-1.54-3.27-.88l-16.65,9.61c-1.15.66-1.54,2.13-.88,3.27.13.22.28.41.46.57l-27.78,16.04c-.05-.24-.13-.47-.26-.69-.66-1.15-2.13-1.54-3.27-.88l-16.65,9.61c-1.15.66-1.54,2.13-.88,3.27.13.22.28.41.46.57l-9.92,5.73-132.87-76.71,10.9-6.3c.03.35.12.69.31,1.02.44.77,1.25,1.2,2.08,1.2.41,0,.82-.1,1.2-.32l16.65-9.61c1.15-.66,1.54-2.13.88-3.27-.19-.32-.44-.58-.73-.77l27.99-16.16c.03.35.12.69.31,1.02.44.77,1.25,1.2,2.08,1.2.41,0,.82-.1,1.2-.32l16.65-9.61c1.15-.66,1.54-2.13.88-3.27-.19-.32-.44-.58-.73-.77l10.64-6.14Zm-92.68,56.28l132.87,76.71v13.7l-128.17-74s0,0,0,0l-4.7-2.71v-13.7Zm5.9,22.64l73.43,42.39,53.54,30.91v92.57l-126.97-73.31v-92.57Zm216.72,116.82l-84.96,49.05v-92.57l84.96-49.05v92.57Zm5.33-101.18l-64.21,37.07-26.08,15.06v-13.7s90.29-52.13,90.29-52.13v13.7Z"/>
    <path class="cls-1" d="m389.14,221.52c-.19-.13-.44-.15-.64-.03l-32.29,18.64c-.24.14-.36.43-.27.69l3.21,10.41c.05.17.18.31.35.38.07.03.14.04.22.04.1,0,.21-.03.3-.08l26.68-15.41c.15-.09.26-.24.29-.41l2.4-13.65c.04-.23-.06-.46-.25-.59Z"/>
    <g>
      <path class="cls-1" d="m336.09,288.43c-.1,0-.2-.05-.26-.15-.08-.14-.03-.33.11-.41l69.6-40.18c.14-.08.33-.03.41.11.08.14.03.33-.11.41l-69.6,40.18s-.1.04-.15.04Z"/>
      <path class="cls-1" d="m336.09,297.71c-.1,0-.2-.05-.26-.15-.08-.14-.03-.33.11-.41l69.6-40.18c.14-.08.33-.03.41.11.08.14.03.33-.11.41l-69.6,40.18s-.1.04-.15.04Z"/>
      <path class="cls-1" d="m336.09,307c-.1,0-.2-.05-.26-.15-.08-.14-.03-.33.11-.41l69.6-40.18c.14-.08.33-.03.41.11.08.14.03.33-.11.41l-69.6,40.18s-.1.04-.15.04Z"/>
      <path class="cls-1" d="m336.09,316.28c-.1,0-.2-.05-.26-.15-.08-.14-.03-.33.11-.41l69.6-40.18c.14-.08.33-.03.41.11.08.14.03.33-.11.41l-69.6,40.18s-.1.04-.15.04Z"/>
      <path class="cls-1" d="m336.09,325.57c-.1,0-.2-.05-.26-.15-.08-.14-.03-.33.11-.41l69.6-40.18c.14-.08.33-.03.41.11.08.14.03.33-.11.41l-69.6,40.18s-.1.04-.15.04Z"/>
    </g>
  </g>
  <g>
    <polygon class="cls-4" points="222.36 404.33 90.6 328.26 90.6 230.16 84.7 226.75 84.7 207.52 222.37 286.99 222.36 404.33"/>
    <polygon class="cls-4" points="312.12 352.52 222.36 404.33 222.37 286.99 317.44 232.1 317.44 251.34 312.12 254.41 312.12 352.52"/>
    <polygon class="cls-4" points="222.37 286.99 84.7 207.52 179.79 152.62 317.44 232.1 222.37 286.99"/>
    <path d="m319.83,232.01s0-.1,0-.15c-.01-.11-.03-.22-.05-.32,0-.03-.02-.06-.02-.1-.03-.11-.07-.22-.12-.33-.02-.04-.04-.08-.06-.13-.05-.09-.1-.18-.16-.27-.02-.03-.04-.06-.06-.09-.08-.1-.16-.19-.25-.27-.03-.03-.07-.06-.1-.09-.1-.08-.2-.16-.31-.23,0,0-.02-.01-.02-.02l-137.66-79.48c-.74-.43-1.66-.43-2.4,0l-95.08,54.89s0,0,0,0c-.12.07-.24.16-.34.25-.03.02-.06.05-.08.07-.1.09-.19.19-.28.3,0,.01-.02.03-.03.04-.07.1-.14.21-.19.32-.02.03-.03.06-.05.1-.06.12-.11.25-.14.38,0,0,0,0,0,0-.03.13-.05.26-.07.39,0,.04,0,.08,0,.11,0,.04,0,.07,0,.11v19.24c0,.86.46,1.65,1.2,2.07l4.7,2.71v96.72c0,.86.46,1.65,1.2,2.07l131.74,76.06s.01,0,.02.01c.37.21.78.32,1.2.32s.83-.11,1.2-.32l89.75-51.82c.74-.43,1.2-1.22,1.2-2.07v-96.72l4.13-2.38c.74-.43,1.2-1.22,1.2-2.08v-19.24s0-.06,0-.09Zm-140.05-76.62l132.87,76.71-11.41,6.59c-.05-.24-.13-.47-.26-.69-.66-1.15-2.13-1.54-3.27-.88l-16.65,9.61c-1.15.66-1.54,2.13-.88,3.27.13.22.28.41.46.57l-27.78,16.04c-.05-.24-.13-.47-.25-.69-.66-1.15-2.13-1.54-3.27-.88l-16.65,9.61c-1.15.66-1.54,2.13-.88,3.27.13.22.28.41.46.57l-9.92,5.73-132.87-76.71,10.91-6.3c.03.35.12.69.31,1.02.44.77,1.25,1.2,2.08,1.2.41,0,.82-.1,1.2-.32l16.65-9.61c1.15-.66,1.54-2.13.88-3.27-.19-.32-.44-.58-.73-.77l27.99-16.16c.03.35.12.69.31,1.02.44.77,1.25,1.2,2.08,1.2.41,0,.82-.1,1.2-.32l16.65-9.61c1.15-.66,1.54-2.13.88-3.27-.19-.32-.44-.58-.73-.77l10.64-6.14Zm-92.68,56.28l132.87,76.71v13.7l-128.17-74s0,0,0,0l-4.7-2.71v-13.7Zm5.9,22.64l73.43,42.39,53.54,30.91v92.57l-126.97-73.31v-92.57Zm216.72,116.82l-84.96,49.05v-92.57l84.96-49.05v92.57Zm5.33-101.18l-64.21,37.07-26.08,15.06v-13.7s90.29-52.13,90.29-52.13v13.7Z"/>
    <path d="m285.56,281.79c-.19-.13-.44-.15-.64-.03l-32.29,18.64c-.24.14-.36.43-.27.69l3.21,10.41c.05.17.18.31.35.38.07.03.14.04.22.04.1,0,.21-.03.3-.08l26.68-15.41c.15-.09.26-.24.29-.41l2.4-13.65c.04-.23-.06-.46-.25-.59Z"/>
    <g>
      <path class="cls-2" d="m232.51,348.7c-.1,0-.2-.05-.26-.15-.08-.14-.03-.33.11-.41l69.6-40.18c.14-.08.33-.03.41.11.08.14.03.33-.11.41l-69.6,40.18s-.1.04-.15.04Z"/>
      <path class="cls-2" d="m232.51,357.98c-.1,0-.2-.05-.26-.15-.08-.14-.03-.33.11-.41l69.6-40.18c.14-.08.33-.03.41.11.08.14.03.33-.11.41l-69.6,40.18s-.1.04-.15.04Z"/>
      <path class="cls-2" d="m232.51,367.27c-.1,0-.2-.05-.26-.15-.08-.14-.03-.33.11-.41l69.6-40.18c.14-.08.33-.03.41.11.08.14.03.33-.11.41l-69.6,40.18s-.1.04-.15.04Z"/>
      <path class="cls-2" d="m232.51,376.55c-.1,0-.2-.05-.26-.15-.08-.14-.03-.33.11-.41l69.6-40.18c.14-.08.33-.03.41.11.08.14.03.33-.11.41l-69.6,40.18s-.1.04-.15.04Z"/>
      <path class="cls-2" d="m232.51,385.83c-.1,0-.2-.05-.26-.15-.08-.14-.03-.33.11-.41l69.6-40.18c.14-.08.33-.03.41.11.08.14.03.33-.11.41l-69.6,40.18s-.1.04-.15.04Z"/>
    </g>
    <g>
      <path class="cls-2" d="m211.28,357.98c-.05,0-.1-.01-.15-.04l-58.51-33.78c-.14-.08-.19-.27-.11-.41.08-.14.27-.19.41-.11l58.51,33.78c.14.08.19.27.11.41-.05.1-.16.15-.26.15Z"/>
      <path class="cls-2" d="m211.28,367.27c-.05,0-.1-.01-.15-.04l-58.51-33.78c-.14-.08-.19-.27-.11-.41.08-.14.27-.19.41-.11l58.51,33.78c.14.08.19.27.11.41-.05.1-.16.15-.26.15Z"/>
      <path class="cls-2" d="m211.28,376.55c-.05,0-.1-.01-.15-.04l-58.51-33.78c-.14-.08-.19-.27-.11-.41.08-.14.27-.19.41-.11l58.51,33.78c.14.08.19.27.11.41-.05.1-.16.15-.26.15Z"/>
      <path class="cls-2" d="m211.28,385.83c-.05,0-.1-.01-.15-.04l-58.51-33.78c-.14-.08-.19-.27-.11-.41.08-.14.27-.19.41-.11l58.51,33.78c.14.08.19.27.11.41-.05.1-.16.15-.26.15Z"/>
    </g>
  </g>
</svg>